<svg width="100" height="100" viewBox="0 0 100 100" fill="none" xmlns="http://www.w3.org/2000/svg">
<circle cx="50" cy="50" r="50" fill="white"/>
<g clip-path="url(#clip0_851_2457)">
<path d="M58.3403 29.3444C58.2288 29.3401 58.1537 29.3405 58.1327 29.3651C58.1002 29.4033 57.6095 30.9073 57.0529 32.6874C56.4963 34.4675 55.1184 38.8701 53.9798 42.4881C52.8413 46.106 51.935 49.1356 51.9657 49.2156C52.0141 49.3417 52.257 49.361 53.7099 49.361C55.075 49.361 55.4052 49.3974 55.4956 49.5063C55.5863 49.6155 55.3325 50.3035 54.1252 53.2231C53.3107 55.1928 52.557 56.9718 52.4641 57.1891C52.3711 57.4063 52.3513 57.5796 52.4018 57.5628C52.5616 57.5095 62.597 46.0636 62.597 45.9349C62.597 45.8354 62.1897 45.8103 60.4583 45.8103C59.1197 45.8103 58.3136 45.7849 58.278 45.7273C58.2468 45.6767 58.5348 45.0666 58.9217 44.3776C59.3086 43.6886 60.236 42.0147 60.9981 40.6608C64.2798 34.8314 65.8109 32.122 65.8569 32.0022C65.9109 31.8615 64.4461 31.0736 63.1783 30.5694C61.8791 30.0528 59.121 29.3746 58.3403 29.3444ZM52.8171 31.6077L52.4848 31.6492C52.1001 31.7087 50.1034 32.2504 49.7232 32.3967L49.4533 32.5005L49.4948 34.5146L49.5156 36.5288L49.2456 36.6741C49.0973 36.7487 48.6939 36.9731 48.3528 37.1724L47.7298 37.5254L46.0687 36.5495C45.1563 36.011 44.3844 35.5529 44.3453 35.5321C44.2429 35.4776 43.1312 36.4777 42.435 37.2555L41.8328 37.9199L42.871 39.6434L43.9092 41.3668L43.6808 41.7405C43.5555 41.9449 43.314 42.359 43.1617 42.6542L42.8918 43.194L40.8984 43.1525L38.8843 43.111L38.6975 43.5678C38.5291 44.0089 38.1481 45.5114 38.033 46.1633L37.9707 46.4955L39.7149 47.4507L41.4591 48.4058V49.4648V50.503L39.7149 51.4582L37.9707 52.4133L38.033 52.7455C38.1273 53.2796 38.5139 54.7678 38.6975 55.2995L38.8636 55.7979L40.8777 55.7563L42.8918 55.7148L43.1617 56.2547C43.314 56.5499 43.5555 56.9639 43.6808 57.1683L43.9092 57.542L42.871 59.2655L41.8328 60.9889L42.5596 61.7779C43.2177 62.498 44.1907 63.3975 44.3038 63.3975C44.3279 63.3975 45.1146 62.9546 46.048 62.4008L47.7506 61.3834L48.3528 61.7572C48.6911 61.9548 49.0973 62.1809 49.2456 62.2555L49.5156 62.3801L49.4948 64.3942L49.4533 66.4083L49.7232 66.5121C50.1284 66.6672 51.4579 67.0356 52.1111 67.1766C52.437 67.2469 52.7275 67.318 52.7548 67.3219C52.7821 67.3259 53.2466 66.5595 53.7722 65.6193L54.7274 63.8959H55.8071H56.8868L57.8212 65.5985L58.7556 67.2804L59.0671 67.2389C59.4196 67.203 61.2092 66.7646 61.7456 66.5744L62.0986 66.4291V64.415V62.3801L62.3685 62.2555C62.519 62.1795 62.9223 61.9553 63.2614 61.7572L63.8843 61.3834L65.5662 62.4008C66.4884 62.955 67.2726 63.3975 67.3312 63.3975C67.4763 63.3975 69.719 61.1369 69.719 60.9889C69.719 60.9239 69.2716 60.1182 68.7224 59.2032L67.7257 57.542L67.9541 57.1683C68.0794 56.9639 68.3002 56.5499 68.4524 56.2547L68.7224 55.7148L70.7365 55.7563L72.7506 55.7979L72.9167 55.2995C73.1016 54.7639 73.4893 53.2728 73.5812 52.7455L73.6435 52.4133L71.8993 51.4582L70.1759 50.503V49.4648V48.4058L71.8993 47.4507C72.852 46.9261 73.6439 46.4636 73.6435 46.4125C73.6415 46.187 73.1788 44.3343 72.979 43.7547L72.7506 43.111L70.7365 43.1525L68.7224 43.194L68.4524 42.6542C68.3002 42.3589 68.0794 41.9449 67.9541 41.7405L67.7257 41.3668L68.7431 39.6434L69.7813 37.9199L69.0546 37.1309C68.2643 36.2663 67.3839 35.4835 67.2689 35.5321C67.2295 35.5487 66.7687 35.7918 66.2514 36.0927L65.3171 36.6533L63.9674 38.6467L62.6177 40.64L63.4898 41.5121C65.3039 43.3114 66.3948 45.4129 66.7498 47.8244C66.9159 48.9528 66.9193 49.5594 66.7913 50.6899C66.2422 55.5403 62.6156 59.4278 57.7797 60.3452C56.8198 60.5273 54.8518 60.5226 53.8345 60.3452C50.6554 59.7908 47.7274 57.6973 46.131 54.8427C44.6441 52.1839 44.3363 48.8609 45.3004 45.9557C46.2336 43.1438 48.2741 40.8165 50.969 39.5188C51.8331 39.1027 53.3112 38.6052 53.6891 38.6052C53.92 38.6052 53.9645 38.4565 54.3951 36.6533L54.7689 35.1168L53.793 33.3518L52.8171 31.6077ZM33.8386 56.2547L33.5064 57.2929L33.1742 58.3311L32.572 58.5802L31.9699 58.8294L31.0147 58.3934C30.4902 58.1459 30.0387 57.9366 29.9973 57.9366C29.9558 57.9366 29.6573 58.2104 29.3328 58.5387L28.7307 59.1201L29.2082 60.0545C29.4731 60.5661 29.6872 61.0386 29.6858 61.0927C29.6843 61.1469 29.5973 61.4229 29.4782 61.7156L29.2498 62.2555L28.2116 62.6292L27.1734 63.003L27.1526 63.8751L27.1318 64.7264L28.1908 65.0794L29.229 65.4116L29.4159 65.8477C29.741 66.5789 29.7322 66.6495 29.229 67.6749L28.7722 68.6301L29.3744 69.253L29.9973 69.8552L31.0147 69.3568L32.0114 68.8585L32.6136 69.1284L33.195 69.3984L33.5479 70.4158L33.9009 71.4332H34.7938H35.6659L35.9774 70.395L36.3096 69.3776L36.891 69.1284L37.4931 68.8585L38.5313 69.3361L39.5488 69.8136L40.1509 69.2115L40.7531 68.6093L40.2755 67.6126L39.7772 66.616L39.9848 66.0553C40.0987 65.7507 40.2391 65.4757 40.2963 65.4324C40.3534 65.3891 40.8352 65.1863 41.376 64.9964L42.3727 64.6641L42.3519 63.792L42.3104 62.9199L41.293 62.5877L40.2548 62.2555L40.0264 61.7156C39.9058 61.4188 39.8187 61.1334 39.8187 61.0719C39.8187 61.0104 40.0093 60.5387 40.2548 60.013L40.7116 59.0578L40.0886 58.4349L39.4657 57.812L38.4898 58.3311L37.5347 58.8294L36.9325 58.5802L36.3303 58.3518L35.9566 57.2929L35.5621 56.2547H34.7107H33.8386ZM34.7523 61.4665C36.9663 61.4677 37.9932 64.1429 36.3511 65.6193C36.1083 65.8376 35.7403 66.058 35.5413 66.1176C34.2288 66.5109 32.8358 65.819 32.4682 64.5811C32.28 63.9471 32.2882 63.5951 32.5097 63.003C32.8684 62.0443 33.7285 61.4659 34.7523 61.4665Z" fill="#01040B"/>
</g>
<defs>
<clipPath id="clip0_851_2457">
<rect width="46.5116" height="46.5116" fill="white" transform="translate(27.1318 27.1318)"/>
</clipPath>
</defs>
</svg>
