<svg width="891" height="612" viewBox="0 0 891 612" fill="none" xmlns="http://www.w3.org/2000/svg">
<path d="M608.016 -301.996C591.978 -266.848 622.886 -192.613 670.476 -135.782C781.561 -55.5754 734.468 88.7421 692 135.421C652.325 192.018 487.669 272.258 514.202 344.991C545.757 391.542 594.353 508.208 536.297 602.457C464.582 718.882 350.555 682.161 315.529 748.413" stroke="#FF4155" stroke-width="0.804573" stroke-dasharray="4.02 4.02"/>
<path d="M590.974 -309.208C574.936 -274.06 605.844 -199.825 653.434 -142.993C764.519 -62.7873 717.426 81.5302 674.958 128.209C635.282 184.806 470.627 265.046 497.16 337.779C528.715 384.33 577.31 500.996 519.255 595.245C447.54 711.67 333.512 674.949 298.487 741.201" stroke="#FF4155" stroke-width="0.804573" stroke-dasharray="4.02 4.02"/>
<path d="M566.864 -314.169C550.825 -279.021 581.734 -204.786 629.324 -147.954C740.408 -67.7482 693.316 76.5692 650.848 123.248C611.172 179.845 446.517 260.085 473.05 332.818C504.604 379.37 553.2 496.035 495.145 590.284C423.43 706.709 309.402 669.988 274.377 736.241" stroke="#FF4155" stroke-width="0.804573" stroke-dasharray="4.02 4.02"/>
<path d="M542.768 -316.066C526.729 -280.918 557.638 -206.683 605.228 -149.851C716.312 -69.6452 669.22 74.6723 626.752 121.351C587.076 177.948 422.421 258.188 448.954 330.921C480.508 377.473 529.104 494.138 471.049 588.387C399.334 704.812 285.306 668.091 250.281 734.344" stroke="#FF4155" stroke-width="0.804573" stroke-dasharray="4.02 4.02"/>
<path d="M520.239 -321.668C504.201 -286.52 535.109 -212.285 582.699 -155.453C693.784 -75.247 646.691 69.0705 604.224 115.749C564.548 172.346 399.892 252.587 426.425 325.319C457.98 371.871 506.576 488.536 448.521 582.785C376.805 699.21 262.778 662.489 227.752 728.742" stroke="#FF4155" stroke-width="0.804573" stroke-dasharray="4.02 4.02"/>
<path d="M495.788 -332.015C479.749 -296.867 510.657 -222.632 558.247 -165.801C669.332 -85.5944 622.24 58.7231 579.772 105.402C540.096 161.999 375.44 242.239 401.973 314.972C433.528 361.523 482.124 478.189 424.069 572.438C352.354 688.863 238.326 652.142 203.3 718.394" stroke="#FF4155" stroke-width="0.804573" stroke-dasharray="4.02 4.02"/>
<path d="M471.336 -342.362C455.297 -307.214 486.206 -232.98 533.796 -176.148C644.88 -95.9416 597.788 48.3759 555.32 95.0546C515.644 151.651 350.989 231.892 377.522 304.625C409.076 351.176 457.672 467.842 399.617 562.09C327.902 678.515 213.874 641.794 178.849 708.047" stroke="#FF4155" stroke-width="0.804573" stroke-dasharray="4.02 4.02"/>
<path d="M446.884 -352.71C430.846 -317.562 461.754 -243.327 509.344 -186.495C620.429 -106.289 573.336 38.0287 530.869 84.7075C491.193 141.304 326.537 221.545 353.07 294.277C384.625 340.829 433.221 457.494 375.166 551.743C303.451 668.168 189.423 631.447 154.397 697.7" stroke="#FF4155" stroke-width="0.804573" stroke-dasharray="4.02 4.02"/>
<path d="M422.433 -363.057C406.394 -327.909 437.302 -253.674 484.892 -196.842C595.977 -116.636 548.885 27.6816 506.417 74.3603C466.741 130.957 302.085 211.198 328.618 283.93C360.173 330.482 408.769 447.147 350.714 541.396C278.999 657.821 164.971 621.1 129.945 687.353" stroke="#FF4155" stroke-width="0.804573" stroke-dasharray="4.02 4.02"/>
<path d="M851.226 -207.814C817.707 -160.261 664.156 -224.074 551.401 -69.1023C498.708 21.0089 691.317 124.648 711.024 321.695C702.2 425.128 481.942 359.296 360.06 597.77C335.603 655.565 349.354 760.979 427.187 814.884" stroke="#FF4155" stroke-width="0.804573" stroke-dasharray="4.02 4.02"/>
<path d="M873.454 -198.407C839.935 -150.854 686.385 -214.667 573.629 -59.6958C520.936 30.4153 713.546 134.054 733.253 331.101C724.429 434.534 504.171 368.702 382.289 607.176C357.831 664.971 371.583 770.386 449.416 824.29" stroke="#FF4155" stroke-width="0.804573" stroke-dasharray="4.02 4.02"/>
<path d="M895.313 -189.158C861.794 -141.604 708.243 -205.417 595.488 -50.446C542.794 39.6651 735.404 143.304 755.111 340.351C746.287 443.784 526.029 377.952 404.147 616.426C379.69 674.221 393.441 779.636 471.274 833.54" stroke="#FF4155" stroke-width="0.804573" stroke-dasharray="4.02 4.02"/>
<path d="M895.313 -189.158C861.794 -141.604 708.243 -205.417 595.488 -50.446C542.794 39.6651 735.404 143.304 755.111 340.351C746.287 443.784 526.029 377.952 404.147 616.426C379.69 674.221 393.441 779.636 471.274 833.54" stroke="#FF4155" stroke-width="0.804573" stroke-dasharray="4.02 4.02"/>
<path d="M922.501 -181.147C888.982 -133.594 735.431 -197.407 622.676 -42.4355C569.982 47.6756 762.592 151.314 782.299 348.361C773.475 451.795 553.217 385.963 431.335 624.436C406.878 682.231 420.629 787.646 498.462 841.551" stroke="#FF4155" stroke-width="0.804573" stroke-dasharray="4.02 4.02"/>
<path d="M943.988 -172.054C910.469 -124.501 756.919 -188.314 644.163 -33.3422C591.47 56.7689 784.08 160.408 803.786 357.455C794.962 460.888 574.705 395.056 452.822 633.53C428.365 691.325 442.117 796.739 519.95 850.644" stroke="#FF4155" stroke-width="0.804573" stroke-dasharray="4.02 4.02"/>
<path d="M970.436 -164.357C936.917 -116.804 783.366 -180.617 670.611 -25.6455C617.918 64.4656 810.527 168.105 830.234 365.151C821.41 468.585 601.152 402.753 479.27 641.226C454.813 699.021 468.564 804.436 546.397 858.341" stroke="#FF4155" stroke-width="0.804573" stroke-dasharray="4.02 4.02"/>
<path d="M996.882 -156.66C963.363 -109.107 809.813 -172.92 697.057 -17.9484C644.364 72.1627 836.974 175.802 856.68 372.849C847.856 476.282 627.599 410.45 505.717 648.924C481.259 706.718 495.011 812.133 572.844 866.038" stroke="#FF4155" stroke-width="0.804573" stroke-dasharray="4.02 4.02"/>
<path d="M1023.33 -148.963C989.81 -101.41 836.26 -165.223 723.504 -10.2514C670.811 79.8597 863.421 183.499 883.128 380.546C874.304 483.979 654.046 418.147 532.164 656.621C507.706 714.415 521.458 819.83 599.291 873.735" stroke="#FF4155" stroke-width="0.804573" stroke-dasharray="4.02 4.02"/>
<circle cx="532" cy="121" r="8" fill="#FF4155"/>
<circle cx="532" cy="121" r="4" fill="white"/>
<circle cx="613.548" cy="160.548" r="4.39382" fill="#FFD600"/>
<circle cx="613.548" cy="160.548" r="2.19691" fill="white"/>
<circle cx="588.764" cy="40.7642" r="4.51986" fill="#4B5768"/>
<circle cx="588.764" cy="40.7641" r="2.25993" fill="white"/>
<circle cx="423.999" cy="147.571" r="3.02278" fill="#76FF03"/>
<circle cx="423.999" cy="147.571" r="1.51139" fill="white"/>
</svg>
