<svg width="100" height="100" viewBox="0 0 100 100" fill="none" xmlns="http://www.w3.org/2000/svg">
<circle cx="50" cy="50" r="50" fill="#FFFBE6"/>
<path d="M74.7094 55.7653H67.5389V48.5948H63.9536V64.7285H35.2714V36.0463H51.4052V32.4611H44.2346V25.2905H40.6493V32.4611H35.2714C34.3209 32.462 33.4095 32.8401 32.7373 33.5122C32.0652 34.1844 31.6871 35.0958 31.6862 36.0463V41.4242H24.5156V45.0095H31.6862V55.7653H24.5156V59.3506H31.6862V64.7285C31.6871 65.6791 32.0652 66.5905 32.7373 67.2626C33.4095 67.9348 34.3209 68.3128 35.2714 68.3138H40.6493V75.4843H44.2346V68.3138H54.9904V75.4843H58.5757V68.3138H63.9536C64.904 68.3124 65.8151 67.9342 66.4872 67.2621C67.1593 66.59 67.5375 65.6789 67.5389 64.7285V59.3506H74.7094V55.7653Z" fill="#2A3887"/>
<path d="M67.5387 25.2905C65.6375 25.2924 63.8148 26.0485 62.4705 27.3928C61.1261 28.7372 60.3701 30.5599 60.3682 32.4611C60.3749 33.7376 60.726 34.9886 61.3846 36.0822L56.0407 41.4242H40.6492V59.3506H58.5755V43.959L63.9176 38.617C65.0113 39.275 66.2623 39.6255 67.5387 39.6316C69.4405 39.6316 71.2643 38.8761 72.609 37.5314C73.9538 36.1867 74.7092 34.3628 74.7092 32.4611C74.7092 30.5593 73.9538 28.7355 72.609 27.3907C71.2643 26.046 69.4405 25.2905 67.5387 25.2905ZM54.9903 55.7653H44.2344V45.0095H54.9903V55.7653ZM67.5387 36.0463C66.8296 36.0463 66.1364 35.8361 65.5468 35.4421C64.9572 35.0482 64.4977 34.4882 64.2263 33.8331C63.955 33.178 63.884 32.4571 64.0223 31.7616C64.1607 31.0661 64.5021 30.4273 65.0035 29.9259C65.5049 29.4245 66.1438 29.083 66.8393 28.9447C67.5347 28.8063 68.2556 28.8774 68.9107 29.1487C69.5659 29.4201 70.1258 29.8796 70.5197 30.4692C70.9137 31.0588 71.124 31.752 71.124 32.4611C71.123 33.4117 70.745 34.323 70.0728 34.9952C69.4007 35.6674 68.4893 36.0454 67.5387 36.0463Z" fill="#FFDD54"/>
</svg>
