<svg width="404" height="57" viewBox="0 0 404 57" fill="none" xmlns="http://www.w3.org/2000/svg">
<g clip-path="url(#clip0_242_21772)">
<path d="M184.889 0H7.11111C3.18375 0 0 3.18997 0 7.125V49.875C0 53.81 3.18375 57 7.11111 57H184.889C188.816 57 192 53.81 192 49.875V7.125C192 3.18997 188.816 0 184.889 0Z" fill="#080F1A"/>
<path d="M176.71 2.45182e-06H15.2983C14.7099 2.45182e-06 14.1286 2.45188e-06 13.5418 0.00285245C13.0506 0.00570245 12.5633 0.0139817 12.0674 0.02095C10.99 0.03221 9.91513 0.116391 8.85214 0.272762C7.79065 0.432536 6.76241 0.733757 5.80219 1.16624C4.84316 1.60237 3.96686 2.16909 3.20508 2.84583C2.43931 3.52066 1.80098 4.30068 1.31464 5.15588C0.826955 6.00938 0.488793 6.92399 0.311833 7.86811C0.13319 8.81104 0.0370612 9.76484 0.024308 10.721C0.00941837 11.1579 0.00784596 11.5962 0 12.0332V44.971C0.00784596 45.4135 0.00941837 45.8421 0.024308 46.2847C0.0370651 47.2408 0.133194 48.1945 0.311833 49.1374C0.488304 50.0821 0.826487 50.9972 1.31464 51.851C1.80076 52.7035 2.43918 53.4803 3.20508 54.1514C3.96397 54.8312 4.84084 55.3983 5.80219 55.8311C6.7624 56.2647 7.79053 56.5677 8.85214 56.73C9.91531 56.8851 10.9901 56.9693 12.0674 56.9819C12.5633 56.9916 13.0506 56.9972 13.5418 56.9972C14.1286 57 14.71 57 15.2983 57H176.71C177.287 57 177.873 57 178.45 56.9972C178.938 56.9972 179.44 56.9916 179.929 56.9819C181.004 56.97 182.077 56.8857 183.138 56.73C184.203 56.5666 185.235 56.2636 186.199 55.8311C187.16 55.398 188.036 54.8309 188.794 54.1514C189.558 53.4777 190.198 52.7014 190.69 51.851C191.175 50.9966 191.51 50.0815 191.683 49.1374C191.862 48.1944 191.962 47.2409 191.981 46.2847C191.987 45.8421 191.987 45.4135 191.987 44.971C192 44.4533 192 43.9384 192 43.4123V13.589C192 13.0671 192 12.5495 191.987 12.0332C191.987 11.5962 191.987 11.1579 191.981 10.7209C191.962 9.7647 191.862 8.81111 191.683 7.86805C191.509 6.92448 191.174 6.00994 190.69 5.15582C189.7 3.44166 188.129 2.04634 186.199 1.16611C185.235 0.734686 184.203 0.433545 183.138 0.272633C182.077 0.115574 181.004 0.0313635 179.929 0.0207504C179.44 0.0137965 178.938 0.00544595 178.45 0.0026672C177.873 -0.000182798 177.287 2.45182e-06 176.71 2.45182e-06Z" fill="#A6A6A6"/>
<path d="M13.4115 55.7574C12.9218 55.7574 12.444 55.7519 11.9581 55.7422C10.9516 55.7305 9.94745 55.6528 8.9539 55.5097C8.02746 55.3682 7.12998 55.105 6.29108 54.7288C5.45987 54.3557 4.70174 53.8664 4.04573 53.2798C3.38023 52.7001 2.82617 52.0278 2.40551 51.2894C1.98021 50.5462 1.68588 49.7496 1.53276 48.9274C1.36741 48.0439 1.27795 47.1505 1.26515 46.2549C1.25496 45.9543 1.24162 44.9535 1.24162 44.9535V12.0283C1.24162 12.0283 1.25583 11.0429 1.26523 10.7533C1.27749 9.85923 1.36643 8.96723 1.53128 8.08508C1.68468 7.26058 1.97924 6.4617 2.40477 5.7161C2.82388 4.97824 3.37487 4.30538 4.03636 3.7236C4.69711 3.1363 5.45767 2.64454 6.29029 2.26628C7.12727 1.89126 8.02304 1.62991 8.94761 1.491C9.94443 1.34643 10.9521 1.26826 11.9621 1.25717L13.4123 1.23976H178.588L180.056 1.25786C181.057 1.26841 182.055 1.34588 183.043 1.4896C183.977 1.63026 184.882 1.89343 185.729 2.27045C187.397 3.03277 188.754 4.23882 189.61 5.71957C190.029 6.46003 190.319 7.25239 190.47 8.06978C190.637 8.95916 190.73 9.85817 190.75 10.7596C190.754 11.1633 190.754 11.5968 190.754 12.0283C190.767 12.5628 190.767 13.0715 190.767 13.5845V43.414C190.767 43.9319 190.767 44.4371 190.754 44.9465C190.754 45.41 190.754 45.8346 190.748 46.2716C190.729 47.157 190.637 48.0399 190.473 48.9134C190.323 49.7416 190.031 50.5444 189.605 51.2937C189.182 52.024 188.631 52.6906 187.973 53.2687C187.316 53.8585 186.557 54.3506 185.724 54.7261C184.88 55.1052 183.976 55.3694 183.043 55.5097C182.049 55.6536 181.045 55.7313 180.039 55.7422C179.568 55.7519 179.075 55.7574 178.596 55.7574L176.854 55.7603L13.4115 55.7574Z" fill="black"/>
<path d="M46.6451 28.9285C46.6604 27.7391 46.9757 26.5729 47.5617 25.5384C48.1477 24.5039 48.9853 23.6348 49.9966 23.0118C49.3542 22.0924 48.5066 21.3358 47.5212 20.8021C46.5359 20.2684 45.4399 19.9722 44.3203 19.9371C41.932 19.6859 39.6167 21.369 38.3997 21.369C37.1592 21.369 35.2854 19.962 33.2676 20.0036C31.9625 20.0459 30.6905 20.4261 29.5757 21.1074C28.4609 21.7886 27.5411 22.7476 26.9062 23.8908C24.1556 28.6623 26.2073 35.6748 28.8421 39.5317C30.1603 41.4204 31.701 43.53 33.7169 43.4552C35.6896 43.3732 36.4264 42.1948 38.8076 42.1948C41.1668 42.1948 41.858 43.4552 43.9148 43.4076C46.0317 43.3732 47.3653 41.5106 48.6373 39.6041C49.5845 38.2584 50.3134 36.7711 50.7969 35.1973C49.5671 34.6761 48.5176 33.8038 47.7793 32.689C47.041 31.5742 46.6465 30.2664 46.6451 28.9285Z" fill="white"/>
<path d="M42.7601 17.4005C43.9143 16.0123 44.4829 14.2279 44.3452 12.4264C42.5819 12.6119 40.953 13.4563 39.7833 14.7913C39.2113 15.4435 38.7733 16.2022 38.4942 17.0241C38.2151 17.846 38.1004 18.715 38.1567 19.5813C39.0387 19.5904 39.9112 19.3989 40.7086 19.0211C41.506 18.6434 42.2074 18.0893 42.7601 17.4005Z" fill="white"/>
<path d="M71.5814 38.674H64.8495L63.2328 43.4569H60.3814L66.7578 25.7613H69.7203L76.0967 43.4569H73.1967L71.5814 38.674ZM65.5467 36.4669H70.8829L68.2523 28.7046H68.1787L65.5467 36.4669Z" fill="white"/>
<path d="M89.8676 37.0069C89.8676 41.0161 87.7259 43.5919 84.4939 43.5919C83.6752 43.6348 82.861 43.4459 82.1445 43.0467C81.428 42.6475 80.8382 42.0542 80.4426 41.3347H80.3814V47.725H77.7383V30.5554H80.2967V32.7012H80.3453C80.7591 31.9852 81.3589 31.395 82.0809 30.9934C82.8029 30.5917 83.62 30.3937 84.4453 30.4204C87.7133 30.4204 89.8676 33.0088 89.8676 37.0069ZM87.1509 37.0069C87.1509 34.3948 85.8037 32.6776 83.7481 32.6776C81.7287 32.6776 80.3703 34.431 80.3703 37.0069C80.3703 39.6064 81.7287 41.3473 83.7481 41.3473C85.8037 41.3473 87.1509 39.6426 87.1509 37.0069Z" fill="white"/>
<path d="M104.04 37.0069C104.04 41.0161 101.898 43.5919 98.6662 43.5919C97.8475 43.6348 97.0332 43.4459 96.3167 43.0467C95.6002 42.6475 95.0104 42.0542 94.6148 41.3347H94.5536V47.725H91.9106V30.5554H94.4689V32.7012H94.5175C94.9313 31.9852 95.5311 31.395 96.2531 30.9934C96.975 30.5918 97.7922 30.3937 98.6175 30.4204C101.886 30.4204 104.04 33.0088 104.04 37.0069ZM101.323 37.0069C101.323 34.3948 99.9759 32.6776 97.9203 32.6776C95.9009 32.6776 94.5425 34.431 94.5425 37.0069C94.5425 39.6064 95.9009 41.3473 97.9203 41.3473C99.9759 41.3473 101.323 39.6426 101.323 37.0069Z" fill="white"/>
<path d="M113.406 38.5265C113.602 40.2813 115.304 41.4335 117.629 41.4335C119.856 41.4335 121.459 40.2812 121.459 38.699C121.459 37.3255 120.493 36.5031 118.204 35.9394L115.915 35.387C112.672 34.6021 111.166 33.0825 111.166 30.6166C111.166 27.5634 113.822 25.4662 117.593 25.4662C121.324 25.4662 123.883 27.5634 123.969 30.6166H121.301C121.141 28.8506 119.684 27.7846 117.555 27.7846C115.426 27.7846 113.969 28.8631 113.969 30.4329C113.969 31.6839 114.899 32.4201 117.176 32.9836L119.122 33.4623C122.745 34.321 124.251 35.7794 124.251 38.3677C124.251 41.6783 121.619 43.7518 117.433 43.7518C113.516 43.7518 110.872 41.727 110.701 38.5264L113.406 38.5265Z" fill="white"/>
<path d="M129.955 27.5022V30.5554H132.404V32.6525H129.955V39.765C129.955 40.8699 130.445 41.3848 131.522 41.3848C131.812 41.3798 132.103 41.3593 132.391 41.3236V43.4082C131.907 43.4988 131.415 43.5398 130.923 43.5306C128.316 43.5306 127.299 42.5496 127.299 40.0475V32.6525H125.427V30.5554H127.299V27.5022H129.955Z" fill="white"/>
<path d="M133.822 37.0069C133.822 32.9476 136.208 30.3968 139.929 30.3968C143.662 30.3968 146.037 32.9475 146.037 37.0069C146.037 41.0773 143.675 43.617 139.929 43.617C136.184 43.617 133.822 41.0773 133.822 37.0069ZM143.344 37.0069C143.344 34.2223 142.07 32.5788 139.929 32.5788C137.787 32.5788 136.515 34.2348 136.515 37.0069C136.515 39.8026 137.787 41.4336 139.929 41.4336C142.07 41.4336 143.344 39.8026 143.344 37.0069Z" fill="white"/>
<path d="M148.216 30.5554H150.737V32.7513H150.798C150.969 32.0655 151.37 31.4594 151.934 31.0349C152.498 30.6104 153.19 30.3934 153.895 30.4204C154.2 30.4193 154.504 30.4525 154.801 30.5192V32.9962C154.416 32.8785 154.015 32.8245 153.613 32.8362C153.229 32.8206 152.847 32.8884 152.491 33.0351C152.136 33.1817 151.816 33.4036 151.555 33.6856C151.293 33.9676 151.096 34.303 150.975 34.6687C150.855 35.0345 150.816 35.4219 150.859 35.8045V43.4569H148.216L148.216 30.5554Z" fill="white"/>
<path d="M166.987 39.6676C166.631 42.0097 164.355 43.617 161.443 43.617C157.697 43.617 155.372 41.1023 155.372 37.0681C155.372 33.0213 157.709 30.3967 161.331 30.3967C164.894 30.3967 167.134 32.8487 167.134 36.7605V37.6679H158.04V37.8279C157.998 38.3027 158.057 38.781 158.214 39.2311C158.371 39.6812 158.621 40.0927 158.949 40.4383C159.276 40.784 159.674 41.0558 160.114 41.2358C160.555 41.4158 161.028 41.4998 161.504 41.4822C162.128 41.5409 162.755 41.3959 163.291 41.069C163.827 40.742 164.243 40.2505 164.477 39.6676L166.987 39.6676ZM158.052 35.817H164.49C164.514 35.3901 164.449 34.9629 164.3 34.5622C164.151 34.1614 163.921 33.7959 163.625 33.4884C163.328 33.1809 162.971 32.9382 162.577 32.7754C162.182 32.6127 161.758 32.5334 161.331 32.5426C160.901 32.54 160.474 32.6229 160.076 32.7864C159.678 32.9499 159.316 33.1908 159.011 33.4952C158.706 33.7997 158.464 34.1616 158.3 34.5601C158.135 34.9586 158.051 35.3858 158.052 35.817Z" fill="white"/>
<path d="M65.2155 12.4417C65.7696 12.4018 66.3256 12.4857 66.8435 12.6873C67.3613 12.8888 67.8281 13.203 68.2101 13.6071C68.592 14.0113 68.8797 14.4954 69.0524 15.0244C69.2251 15.5535 69.2784 16.1144 69.2085 16.6666C69.2085 19.383 67.7432 20.9444 65.2155 20.9444H62.1502V12.4417H65.2155ZM63.4682 19.742H65.0682C65.4642 19.7657 65.8604 19.7006 66.2281 19.5515C66.5958 19.4025 66.9257 19.1731 67.1938 18.8802C67.4619 18.5873 67.6614 18.2381 67.7778 17.8582C67.8943 17.4783 67.9247 17.0771 67.8668 16.6839C67.9205 16.2923 67.887 15.8936 67.7688 15.5164C67.6506 15.1393 67.4505 14.793 67.1831 14.5024C66.9156 14.2118 66.5873 13.9841 66.2217 13.8356C65.856 13.687 65.4622 13.6214 65.0682 13.6433H63.4682V19.742Z" fill="white"/>
<path d="M70.6974 17.7332C70.6571 17.3115 70.7053 16.886 70.8387 16.4841C70.9722 16.0821 71.188 15.7126 71.4724 15.3991C71.7568 15.0856 72.1034 14.8352 72.49 14.6638C72.8766 14.4924 73.2948 14.4039 73.7175 14.4039C74.1403 14.4039 74.5584 14.4924 74.9451 14.6638C75.3317 14.8352 75.6783 15.0856 75.9627 15.3991C76.247 15.7126 76.4629 16.0821 76.5963 16.4841C76.7298 16.886 76.7779 17.3115 76.7377 17.7332C76.7787 18.1553 76.7311 18.5814 76.598 18.984C76.4649 19.3866 76.2492 19.7568 75.9648 20.0709C75.6803 20.385 75.3335 20.636 74.9464 20.8077C74.5594 20.9795 74.1408 21.0682 73.7175 21.0682C73.2943 21.0682 72.8756 20.9795 72.4886 20.8077C72.1016 20.636 71.7547 20.385 71.4703 20.0709C71.1859 19.7568 70.9702 19.3866 70.8371 18.984C70.7039 18.5814 70.6564 18.1553 70.6974 17.7332ZM75.4377 17.7332C75.4377 16.3423 74.814 15.5289 73.7196 15.5289C72.621 15.5289 72.003 16.3423 72.003 17.7332C72.003 19.1352 72.6211 19.9424 73.7196 19.9424C74.8141 19.9424 75.4377 19.1297 75.4377 17.7332Z" fill="white"/>
<path d="M84.7668 20.9443H83.4557L82.1321 16.2184H82.0321L80.7141 20.9443H79.4155L77.6502 14.5276H78.9321L80.0794 19.4239H80.1738L81.4905 14.5276H82.703L84.0196 19.4239H84.1196L85.2613 14.5276H86.5252L84.7668 20.9443Z" fill="white"/>
<path d="M88.0099 14.5276H89.2266V15.547H89.321C89.4812 15.1809 89.7515 14.874 90.094 14.669C90.4366 14.4641 90.8344 14.3714 91.2321 14.4038C91.5437 14.3803 91.8566 14.4274 92.1476 14.5415C92.4386 14.6556 92.7002 14.8339 92.9131 15.0631C93.126 15.2923 93.2847 15.5666 93.3774 15.8656C93.4701 16.1646 93.4945 16.4806 93.4488 16.7904V20.9442H92.1849V17.1084C92.1849 16.0772 91.7377 15.5644 90.803 15.5644C90.5914 15.5545 90.3802 15.5906 90.1838 15.6701C89.9875 15.7497 89.8106 15.8708 89.6654 16.0253C89.5202 16.1797 89.41 16.3638 89.3424 16.5649C89.2748 16.7661 89.2514 16.9794 89.2738 17.1905V20.9443H88.0099L88.0099 14.5276Z" fill="white"/>
<path d="M95.4627 12.0227H96.7266V20.9443H95.4627V12.0227Z" fill="white"/>
<path d="M98.4835 17.7332C98.4433 17.3115 98.4915 16.886 98.6249 16.484C98.7584 16.0821 98.9743 15.7125 99.2587 15.399C99.5431 15.0855 99.8897 14.8351 100.276 14.6637C100.663 14.4923 101.081 14.4037 101.504 14.4037C101.927 14.4037 102.345 14.4923 102.732 14.6637C103.118 14.8351 103.465 15.0855 103.749 15.399C104.034 15.7125 104.25 16.0821 104.383 16.484C104.517 16.886 104.565 17.3115 104.524 17.7332C104.565 18.1553 104.518 18.5814 104.385 18.984C104.252 19.3866 104.036 19.7568 103.751 20.0709C103.467 20.385 103.12 20.6359 102.733 20.8077C102.346 20.9795 101.927 21.0682 101.504 21.0682C101.081 21.0682 100.662 20.9795 100.275 20.8077C99.888 20.6359 99.5411 20.385 99.2567 20.0709C98.9722 19.7568 98.7564 19.3866 98.6233 18.984C98.4902 18.5814 98.4425 18.1553 98.4835 17.7332ZM103.224 17.7332C103.224 16.3423 102.6 15.5289 101.506 15.5289C100.407 15.5289 99.7891 16.3423 99.7891 17.7332C99.7891 19.1352 100.407 19.9424 101.506 19.9424C102.6 19.9424 103.224 19.1297 103.224 17.7332Z" fill="white"/>
<path d="M105.855 19.1297C105.855 17.9746 106.713 17.3088 108.237 17.2141L109.972 17.1139V16.5601C109.972 15.8824 109.524 15.4997 108.661 15.4997C107.955 15.4997 107.466 15.7592 107.326 16.2129H106.102C106.231 15.1107 107.266 14.4038 108.719 14.4038C110.325 14.4038 111.23 15.2046 111.23 16.5601V20.9443H110.013V20.0426H109.913C109.71 20.366 109.425 20.6297 109.087 20.8067C108.749 20.9837 108.371 21.0677 107.99 21.05C107.721 21.0781 107.449 21.0493 107.192 20.9657C106.935 20.882 106.698 20.7453 106.497 20.5644C106.296 20.3835 106.135 20.1623 106.024 19.9152C105.914 19.6681 105.856 19.4005 105.855 19.1297ZM109.972 18.5814V18.0449L108.408 18.1451C107.526 18.2042 107.126 18.5048 107.126 19.0705C107.126 19.648 107.626 19.9841 108.313 19.9841C108.515 20.0045 108.718 19.9841 108.912 19.9242C109.105 19.8642 109.285 19.7658 109.439 19.635C109.594 19.5041 109.721 19.3434 109.812 19.1624C109.904 18.9814 109.958 18.7838 109.972 18.5814Z" fill="white"/>
<path d="M112.891 17.7332C112.891 15.7056 113.931 14.4212 115.549 14.4212C115.95 14.4027 116.347 14.4987 116.695 14.6981C117.042 14.8974 117.326 15.1919 117.513 15.5469H117.608V12.0227H118.872V20.9443H117.661V19.9305H117.561C117.359 20.2832 117.065 20.5739 116.711 20.7713C116.356 20.9686 115.955 21.065 115.549 21.05C113.92 21.0501 112.891 19.7656 112.891 17.7332ZM114.197 17.7332C114.197 19.0942 114.837 19.9131 115.908 19.9131C116.973 19.9131 117.631 19.0824 117.631 17.7388C117.631 16.4014 116.966 15.5588 115.908 15.5588C114.844 15.5588 114.197 16.3833 114.197 17.7332Z" fill="white"/>
<path d="M124.101 17.7332C124.061 17.3115 124.109 16.886 124.242 16.4841C124.376 16.0821 124.592 15.7126 124.876 15.3991C125.16 15.0856 125.507 14.8352 125.893 14.6638C126.28 14.4924 126.698 14.4039 127.121 14.4039C127.544 14.4039 127.962 14.4924 128.349 14.6638C128.735 14.8352 129.082 15.0856 129.366 15.3991C129.651 15.7126 129.866 16.0821 130 16.4841C130.133 16.886 130.181 17.3115 130.141 17.7332C130.182 18.1553 130.135 18.5814 130.001 18.984C129.868 19.3866 129.653 19.7568 129.368 20.0709C129.084 20.385 128.737 20.636 128.35 20.8077C127.963 20.9795 127.544 21.0682 127.121 21.0682C126.698 21.0682 126.279 20.9795 125.892 20.8077C125.505 20.636 125.158 20.385 124.874 20.0709C124.589 19.7568 124.374 19.3866 124.241 18.984C124.107 18.5814 124.06 18.1553 124.101 17.7332ZM128.841 17.7332C128.841 16.3423 128.218 15.5289 127.123 15.5289C126.024 15.5289 125.406 16.3423 125.406 17.7332C125.406 19.1352 126.025 19.9424 127.123 19.9424C128.218 19.9424 128.841 19.1297 128.841 17.7332Z" fill="white"/>
<path d="M131.837 14.5276H133.054V15.547H133.148C133.308 15.1809 133.579 14.874 133.921 14.669C134.264 14.4641 134.662 14.3714 135.059 14.4038C135.371 14.3803 135.684 14.4274 135.975 14.5415C136.266 14.6556 136.527 14.8339 136.74 15.0631C136.953 15.2923 137.112 15.5666 137.204 15.8656C137.297 16.1646 137.322 16.4806 137.276 16.7904V20.9442H136.012V17.1084C136.012 16.0772 135.565 15.5644 134.63 15.5644C134.418 15.5545 134.207 15.5906 134.011 15.6701C133.815 15.7497 133.638 15.8708 133.492 16.0253C133.347 16.1797 133.237 16.3638 133.169 16.5649C133.102 16.7661 133.078 16.9794 133.101 17.1905V20.9443H131.837V14.5276Z" fill="white"/>
<path d="M144.418 12.9301V14.5569H145.805V15.6235H144.418V18.923C144.418 19.5952 144.694 19.8895 145.323 19.8895C145.484 19.889 145.645 19.8792 145.805 19.8602V20.9151C145.578 20.9558 145.348 20.9774 145.118 20.9798C143.712 20.9798 143.152 20.4844 143.152 19.2472V15.6235H142.136V14.5568H143.152V12.9301H144.418Z" fill="white"/>
<path d="M147.531 12.0227H148.784V15.5588H148.884C149.052 15.1893 149.33 14.8806 149.679 14.6749C150.029 14.4692 150.433 14.3765 150.837 14.4093C151.147 14.3924 151.457 14.4443 151.744 14.5612C152.032 14.6781 152.291 14.8572 152.501 15.0857C152.712 15.3142 152.87 15.5864 152.963 15.883C153.057 16.1796 153.084 16.4932 153.042 16.8015V20.9443H151.777V17.1139C151.777 16.089 151.301 15.5699 150.408 15.5699C150.191 15.5521 149.972 15.582 149.768 15.6576C149.563 15.7332 149.378 15.8526 149.224 16.0076C149.07 16.1625 148.953 16.3492 148.878 16.5546C148.804 16.76 148.776 16.9792 148.795 17.1967V20.9443H147.531L147.531 12.0227Z" fill="white"/>
<path d="M160.412 19.2118C160.24 19.7982 159.868 20.3055 159.361 20.6448C158.854 20.9842 158.243 21.134 157.637 21.0681C157.215 21.0793 156.796 20.9983 156.408 20.8309C156.021 20.6634 155.674 20.4134 155.393 20.0983C155.111 19.7832 154.902 19.4104 154.778 19.006C154.655 18.6016 154.621 18.1751 154.679 17.7561C154.622 17.3359 154.657 16.9085 154.78 16.5029C154.903 16.0972 155.112 15.7228 155.392 15.4049C155.672 15.087 156.016 14.8331 156.403 14.6604C156.789 14.4877 157.208 14.4002 157.631 14.4038C159.413 14.4038 160.488 15.6236 160.488 17.6385V18.0804H155.966V18.1514C155.946 18.3868 155.976 18.6239 156.053 18.8472C156.13 19.0706 156.253 19.2754 156.413 19.4485C156.574 19.6215 156.769 19.7591 156.985 19.8523C157.202 19.9455 157.436 19.9922 157.672 19.9896C157.974 20.026 158.28 19.9714 158.552 19.8329C158.823 19.6944 159.047 19.4782 159.195 19.2117L160.412 19.2118ZM155.966 17.1438H159.201C159.217 16.9285 159.188 16.7122 159.115 16.5088C159.043 16.3054 158.928 16.1195 158.78 15.9629C158.632 15.8064 158.452 15.6827 158.253 15.5998C158.054 15.5169 157.84 15.4766 157.624 15.4816C157.406 15.4788 157.189 15.5199 156.986 15.6025C156.784 15.6851 156.6 15.8074 156.445 15.9624C156.291 16.1173 156.169 16.3016 156.087 16.5045C156.004 16.7074 155.963 16.9248 155.966 17.1438Z" fill="white"/>
<path d="M184.889 1.13972C186.473 1.14155 187.991 1.77274 189.111 2.89481C190.231 4.01689 190.86 5.53821 190.862 7.125V49.875C190.86 51.4618 190.23 52.9831 189.111 54.1052C187.991 55.2272 186.473 55.8584 184.889 55.8603H7.11111C5.5274 55.8585 4.00907 55.2273 2.88924 54.1052C1.76941 52.9831 1.13953 51.4618 1.13778 49.875V7.125C1.1395 5.53818 1.76938 4.01685 2.88921 2.89477C4.00905 1.7727 5.52739 1.14152 7.11111 1.13972H184.889ZM184.889 0H7.11111C5.22682 0.00552629 3.42129 0.757968 2.08889 2.09297C0.756491 3.42797 0.00551552 5.23703 0 7.125L0 49.875C0.00551552 51.763 0.756491 53.572 2.08889 54.907C3.42129 56.242 5.22682 56.9945 7.11111 57H184.889C186.773 56.9945 188.579 56.242 189.911 54.907C191.244 53.572 191.994 51.763 192 49.875V7.125C191.994 5.23703 191.244 3.42797 189.911 2.09297C188.579 0.757968 186.773 0.00552629 184.889 0Z" fill="#A6A6A6"/>
<rect x="1.42224" y="1.4248" width="18.4889" height="18.525" rx="4" fill="#080F1A"/>
<rect x="1.42224" y="37.0498" width="18.4889" height="18.525" rx="4" fill="#080F1A"/>
<rect x="172.089" y="37.0498" width="18.4889" height="18.525" rx="4" fill="#080F1A"/>
<rect x="172.089" y="1.4248" width="18.4889" height="18.525" rx="4" fill="#080F1A"/>
</g>
<g clip-path="url(#clip1_242_21772)">
<path d="M396.889 0H219.111C215.184 0 212 3.18996 212 7.12496V49.8748C212 53.8098 215.184 56.9997 219.111 56.9997H396.889C400.816 56.9997 404 53.8098 404 49.8748V7.12496C404 3.18996 400.816 0 396.889 0Z" fill="#080F1A"/>
<path d="M396.889 1.13971C398.473 1.14154 399.991 1.77273 401.111 2.8948C402.231 4.01687 402.86 5.53818 402.862 7.12496V49.8748C402.86 51.4615 402.23 52.9828 401.111 54.1049C399.991 55.227 398.473 55.8582 396.889 55.86H219.111C217.527 55.8582 216.009 55.227 214.889 54.1049C213.769 52.9829 213.14 51.4616 213.138 49.8748V7.12496C213.14 5.53816 213.769 4.01683 214.889 2.89476C216.009 1.77269 217.527 1.14151 219.111 1.13971H396.889ZM396.889 0H219.111C217.227 0.00552626 215.421 0.757964 214.089 2.09296C212.756 3.42795 212.006 5.23701 212 7.12496V49.8748C212.006 51.7627 212.756 53.5718 214.089 54.9068C215.421 56.2418 217.227 56.9942 219.111 56.9997H396.889C398.773 56.9942 400.579 56.2418 401.911 54.9068C403.244 53.5718 403.994 51.7627 404 49.8748V7.12496C403.994 5.23701 403.244 3.42795 401.911 2.09296C400.579 0.757964 398.773 0.00552626 396.889 0Z" fill="#A6A6A6"/>
<path d="M279.439 14.5968C279.465 15.1197 279.385 15.6424 279.203 16.133C279.02 16.6237 278.74 17.0721 278.38 17.4509C277.975 17.8709 277.487 18.2007 276.947 18.4187C276.407 18.6367 275.827 18.7379 275.245 18.7159C274.659 18.7211 274.079 18.609 273.537 18.3862C272.995 18.1633 272.503 17.8342 272.09 17.4181C271.677 17.0021 271.351 16.5075 271.132 15.9635C270.912 15.4195 270.803 14.837 270.812 14.2502C270.803 13.6634 270.912 13.0809 271.132 12.5369C271.351 11.9929 271.677 11.4983 272.09 11.0822C272.503 10.6661 272.995 10.3369 273.537 10.114C274.079 9.89099 274.659 9.77876 275.245 9.78386C275.847 9.78203 276.443 9.90401 276.996 10.1422C277.51 10.3509 277.968 10.6782 278.331 11.0976L277.581 11.8497C277.295 11.5126 276.936 11.2458 276.531 11.0699C276.126 10.894 275.686 10.8137 275.245 10.8352C274.801 10.8329 274.361 10.9204 273.952 11.0924C273.543 11.2644 273.172 11.5174 272.863 11.8363C272.553 12.1551 272.311 12.5333 272.151 12.9481C271.991 13.3629 271.916 13.8057 271.931 14.2502C271.921 14.916 272.108 15.5699 272.468 16.129C272.829 16.6882 273.348 17.1273 273.958 17.3909C274.568 17.6545 275.243 17.7305 275.896 17.6094C276.55 17.4883 277.153 17.1755 277.628 16.7106C278.066 16.2378 278.32 15.6232 278.344 14.9787H275.245V13.9517H279.38C279.419 14.1645 279.439 14.3804 279.439 14.5968Z" fill="white" stroke="white" stroke-width="0.2" stroke-miterlimit="10"/>
<path d="M285.995 11.0257H282.109V13.7365H285.613V14.7636H282.109V17.4744H285.995V18.5251H281.013V9.9751H285.995V11.0257Z" fill="white" stroke="white" stroke-width="0.2" stroke-miterlimit="10"/>
<path d="M290.619 18.5251H289.521V11.0257H287.138V9.9751H293.002V11.0257H290.619V18.5251Z" fill="white" stroke="white" stroke-width="0.2" stroke-miterlimit="10"/>
<path d="M297.245 18.5251V9.9751H298.341V18.5251H297.245Z" fill="white" stroke="white" stroke-width="0.2" stroke-miterlimit="10"/>
<path d="M303.205 18.5251H302.107V11.0257H299.724V9.9751H305.588V11.0257H303.205V18.5251Z" fill="white" stroke="white" stroke-width="0.2" stroke-miterlimit="10"/>
<path d="M316.689 17.4201C315.858 18.2498 314.733 18.7157 313.56 18.7157C312.387 18.7157 311.262 18.2498 310.432 17.4201C310.021 17.0031 309.698 16.5076 309.482 15.963C309.266 15.4184 309.162 14.8359 309.175 14.25C309.162 13.6642 309.266 13.0817 309.482 12.5371C309.698 11.9925 310.021 11.497 310.432 11.08C310.842 10.6686 311.33 10.3423 311.866 10.1198C312.403 9.89741 312.978 9.78318 313.559 9.78369C314.139 9.78421 314.714 9.89946 315.25 10.1229C315.787 10.3462 316.273 10.6734 316.683 11.0856C317.094 11.5015 317.418 11.9959 317.635 12.5395C317.852 13.0831 317.957 13.6648 317.946 14.25C317.959 14.8358 317.854 15.4183 317.638 15.9628C317.422 16.5073 317.099 17.0029 316.689 17.4201ZM311.242 16.7042C311.857 17.3195 312.69 17.6651 313.56 17.6651C314.429 17.6651 315.263 17.3195 315.878 16.7042C316.193 16.3806 316.44 15.9963 316.603 15.5745C316.766 15.1527 316.842 14.7021 316.826 14.25C316.842 13.798 316.766 13.3474 316.603 12.9256C316.44 12.5038 316.193 12.1195 315.878 11.7959C315.263 11.1806 314.429 10.835 313.56 10.835C312.69 10.835 311.857 11.1806 311.242 11.7959C310.927 12.1198 310.68 12.5042 310.517 12.9259C310.355 13.3477 310.279 13.7981 310.294 14.25C310.279 14.702 310.355 15.1524 310.517 15.5742C310.68 15.9959 310.927 16.3803 311.242 16.7042Z" fill="white" stroke="white" stroke-width="0.2" stroke-miterlimit="10"/>
<path d="M319.485 18.5251V9.9751H320.819L324.967 16.6263H325.014L324.967 14.9785V9.9751H326.064V18.5251H324.919L320.58 11.5517H320.533L320.58 13.1994V18.5251H319.485Z" fill="white" stroke="white" stroke-width="0.2" stroke-miterlimit="10"/>
<path d="M308.904 30.9962C307.709 31.0007 306.542 31.3601 305.55 32.0288C304.558 32.6975 303.786 33.6456 303.332 34.7535C302.878 35.8614 302.761 37.0793 302.997 38.2534C303.233 39.4276 303.811 40.5053 304.658 41.3506C305.505 42.196 306.583 42.7709 307.756 43.0029C308.928 43.2349 310.143 43.1135 311.247 42.6541C312.351 42.1947 313.295 41.4178 313.958 40.4216C314.622 39.4254 314.976 38.2546 314.976 37.0568C314.988 36.2557 314.839 35.4605 314.537 34.7183C314.236 33.9762 313.789 33.3023 313.222 32.7369C312.656 32.1714 311.982 31.7259 311.24 31.4269C310.498 31.1279 309.704 30.9814 308.904 30.9962ZM308.904 40.73C308.168 40.7826 307.433 40.6119 306.795 40.2402C306.157 39.8684 305.646 39.3128 305.327 38.6457C305.009 37.9786 304.898 37.2308 305.01 36.4999C305.122 35.7689 305.45 35.0885 305.953 34.5474C306.456 34.0062 307.11 33.6293 307.83 33.4657C308.55 33.3021 309.302 33.3594 309.989 33.6302C310.675 33.901 311.265 34.3727 311.68 34.9838C312.096 35.595 312.318 36.3174 312.318 37.0568C312.341 37.524 312.269 37.9909 312.109 38.4301C311.948 38.8693 311.702 39.2719 311.384 39.6142C311.066 39.9565 310.682 40.2315 310.257 40.4232C309.831 40.6148 309.371 40.7191 308.904 40.73ZM295.659 30.9962C294.463 31.0007 293.296 31.36 292.304 32.0287C291.312 32.6974 290.541 33.6456 290.086 34.7534C289.632 35.8613 289.515 37.0792 289.751 38.2533C289.987 39.4275 290.565 40.5053 291.412 41.3506C292.259 42.1959 293.337 42.7709 294.51 43.0029C295.682 43.2349 296.897 43.1135 298.001 42.6541C299.105 42.1947 300.049 41.4179 300.712 40.4217C301.376 39.4255 301.73 38.2546 301.73 37.0568C301.742 36.2558 301.593 35.4605 301.292 34.7183C300.99 33.9762 300.543 33.3024 299.977 32.7369C299.41 32.1715 298.736 31.726 297.994 31.4269C297.252 31.1279 296.458 30.9814 295.659 30.9962ZM295.659 40.73C294.922 40.7826 294.187 40.6119 293.549 40.2402C292.911 39.8684 292.4 39.3128 292.082 38.6457C291.763 37.9786 291.653 37.2308 291.764 36.4999C291.876 35.7689 292.205 35.0885 292.707 34.5474C293.21 34.0062 293.864 33.6293 294.584 33.4657C295.304 33.3021 296.056 33.3594 296.743 33.6302C297.43 33.901 298.019 34.3727 298.435 34.9838C298.85 35.595 299.072 36.3174 299.072 37.0568C299.095 37.524 299.024 37.9909 298.863 38.4301C298.703 38.8693 298.456 39.2719 298.138 39.6142C297.82 39.9565 297.437 40.2316 297.011 40.4232C296.585 40.6148 296.125 40.7191 295.659 40.73ZM279.902 32.8558V35.4269H286.043C285.954 36.6329 285.462 37.7736 284.645 38.6639C284.03 39.2924 283.29 39.7846 282.473 40.1089C281.656 40.4331 280.78 40.5821 279.902 40.5464C278.107 40.522 276.394 39.7905 275.133 38.5102C273.873 37.2299 273.166 35.5036 273.166 33.7051C273.166 31.9066 273.873 30.1804 275.133 28.9C276.394 27.6197 278.107 26.8882 279.902 26.8639C281.626 26.8413 283.289 27.5013 284.531 28.7004L286.341 26.8868C285.494 26.0468 284.488 25.3846 283.382 24.9392C282.277 24.4937 281.094 24.2739 279.902 24.2926C278.657 24.2744 277.42 24.5045 276.265 24.9694C275.109 25.4342 274.057 26.1247 273.17 27.0005C272.283 27.8763 271.579 28.9201 271.098 30.0711C270.618 31.2221 270.37 32.4574 270.37 33.7051C270.37 34.9528 270.618 36.1881 271.098 37.3391C271.579 38.4901 272.283 39.5339 273.17 40.4097C274.057 41.2856 275.109 41.976 276.265 42.4409C277.42 42.9057 278.657 43.1358 279.902 43.1176C281.119 43.1682 282.332 42.9589 283.462 42.5038C284.592 42.0486 285.612 41.3579 286.455 40.4775C287.952 38.8406 288.75 36.6817 288.678 34.4628C288.684 33.9239 288.637 33.3858 288.54 32.8558H279.902ZM344.34 34.8529C343.977 33.7552 343.285 32.7961 342.359 32.1061C341.432 31.4161 340.316 31.0286 339.162 30.9962C338.385 31.001 337.617 31.1637 336.904 31.4744C336.192 31.7851 335.549 32.2374 335.016 32.8039C334.483 33.3704 334.07 34.0394 333.802 34.7704C333.534 35.5013 333.416 36.2792 333.457 37.0568C333.44 37.8537 333.583 38.6459 333.877 39.3861C334.172 40.1263 334.613 40.7994 335.173 41.3651C335.734 41.9308 336.402 42.3776 337.139 42.6787C337.875 42.9798 338.665 43.1291 339.46 43.1176C340.457 43.1231 341.439 42.8806 342.319 42.4118C343.198 41.943 343.948 41.2626 344.501 40.4317L342.439 39.0543C342.13 39.5683 341.693 39.993 341.171 40.2868C340.648 40.5806 340.059 40.7333 339.46 40.73C338.844 40.7537 338.235 40.5912 337.712 40.2637C337.189 39.9362 336.776 39.4589 336.527 38.8935L344.616 35.5418L344.34 34.8529ZM336.092 36.8733C336.064 36.4322 336.123 35.9898 336.267 35.572C336.412 35.1543 336.638 34.7696 336.932 34.4403C337.226 34.1111 337.583 33.8441 337.982 33.6548C338.381 33.4655 338.813 33.3577 339.254 33.3379C339.713 33.3076 340.17 33.4134 340.57 33.642C340.969 33.8707 341.292 34.212 341.499 34.6235L336.092 36.8733ZM329.516 42.7503H332.174V24.9356H329.516V42.7503ZM325.163 32.3507H325.071C324.667 31.9108 324.174 31.5624 323.624 31.3288C323.075 31.0952 322.483 30.9818 321.886 30.9962C320.326 31.0627 318.852 31.7303 317.772 32.8596C316.692 33.989 316.089 35.4927 316.089 37.0569C316.089 38.6211 316.692 40.1248 317.772 41.2542C318.852 42.3835 320.326 43.0511 321.886 43.1176C322.485 43.1336 323.08 43.0186 323.63 42.7808C324.18 42.5429 324.672 42.1878 325.071 41.7402H325.163V42.6126C325.163 44.9314 323.925 46.1709 321.932 46.1709C321.267 46.155 320.623 45.9413 320.08 45.5569C319.537 45.1726 319.121 44.6351 318.885 44.0129L316.57 44.9772C317.006 46.0412 317.75 46.9505 318.705 47.5886C319.66 48.2266 320.784 48.5644 321.932 48.5585C325.048 48.5585 327.683 46.722 327.683 42.2452V31.3634H325.163V32.3507ZM322.115 40.73C321.197 40.652 320.341 40.2312 319.717 39.551C319.093 38.8708 318.747 37.9807 318.747 37.0569C318.747 36.1332 319.093 35.2431 319.717 34.5628C320.341 33.8826 321.197 33.4618 322.115 33.3838C322.572 33.4061 323.02 33.5205 323.432 33.7199C323.844 33.9194 324.212 34.2 324.513 34.5449C324.815 34.8898 325.044 35.292 325.187 35.7275C325.33 36.163 325.384 36.6229 325.346 37.0798C325.382 37.5338 325.326 37.9904 325.181 38.4223C325.037 38.8541 324.807 39.2524 324.505 39.5931C324.204 39.9339 323.836 40.2102 323.426 40.4056C323.015 40.6009 322.569 40.7113 322.115 40.73ZM356.79 24.9359H350.431V42.7503H353.085V36.0009H356.79C357.541 36.0421 358.292 35.9296 358.998 35.6702C359.704 35.4108 360.349 35.01 360.895 34.4922C361.441 33.9744 361.876 33.3505 362.173 32.6587C362.47 31.9668 362.623 31.2216 362.623 30.4684C362.623 29.7152 362.47 28.9699 362.173 28.2781C361.876 27.5863 361.441 26.9624 360.895 26.4446C360.349 25.9268 359.704 25.526 358.998 25.2666C358.292 25.0071 357.541 24.8946 356.79 24.9359ZM356.859 33.5217H353.085V27.4152H356.859C357.265 27.4068 357.668 27.4795 358.045 27.6292C358.422 27.7788 358.765 28.0024 359.055 28.2868C359.345 28.5711 359.575 28.9105 359.732 29.2852C359.889 29.6598 359.97 30.0621 359.97 30.4685C359.97 30.8748 359.889 31.2771 359.732 31.6517C359.575 32.0264 359.345 32.3658 359.055 32.6502C358.765 32.9345 358.422 33.1581 358.045 33.3077C357.668 33.4574 357.265 33.5301 356.859 33.5217ZM373.26 30.9634C372.291 30.9068 371.327 31.1347 370.486 31.6191C369.645 32.1036 368.963 32.8236 368.525 33.6907L370.881 34.6762C371.114 34.2459 371.468 33.8931 371.899 33.661C372.329 33.429 372.818 33.3278 373.305 33.3698C373.979 33.304 374.65 33.5082 375.173 33.9378C375.697 34.3674 376.028 34.9873 376.096 35.6616V35.845C375.244 35.3914 374.293 35.1553 373.328 35.1575C370.789 35.1575 368.205 36.5555 368.205 39.1683C368.229 39.7189 368.364 40.2589 368.601 40.7564C368.838 41.2538 369.172 41.6985 369.584 42.064C369.996 42.4295 370.476 42.7084 370.998 42.8842C371.519 43.06 372.071 43.129 372.619 43.0873C373.287 43.1267 373.954 42.9859 374.549 42.6795C375.145 42.3732 375.647 41.9125 376.005 41.3455H376.096V42.7206H378.658V35.8909C378.658 32.7281 376.302 30.9634 373.26 30.9634ZM372.939 40.7266C372.07 40.7266 370.858 40.2913 370.858 39.214C370.858 37.839 372.368 37.3118 373.671 37.3118C374.518 37.2892 375.356 37.495 376.096 37.9077C375.999 38.6804 375.625 39.3916 375.045 39.9098C374.465 40.428 373.717 40.7182 372.939 40.7266ZM387.99 31.353L384.948 39.0765H384.857L381.7 31.353H378.841L383.576 42.1476L380.877 48.1523H383.644L390.941 31.353H387.99ZM364.087 42.7503H366.741V24.9359H364.087V42.7503Z" fill="white"/>
<path d="M226.841 10.7416C226.375 11.3003 226.139 12.0166 226.183 12.7436V44.2589C226.139 44.9859 226.375 45.7022 226.841 46.2609L226.947 46.3636L244.566 28.7095V28.293L226.947 10.6382L226.841 10.7416Z" fill="url(#paint0_linear_242_21772)"/>
<path d="M250.439 34.5968L244.566 28.7095V28.293L250.441 22.4072L250.573 22.4829L257.532 26.4445C259.52 27.576 259.52 29.4273 257.532 30.5595L250.573 34.5211L250.439 34.5968Z" fill="url(#paint1_linear_242_21772)"/>
<path d="M250.573 34.5205L244.566 28.5015L226.841 46.261C227.246 46.6189 227.764 46.8236 228.303 46.8396C228.843 46.8555 229.371 46.6818 229.797 46.3485L250.573 34.5205Z" fill="url(#paint2_linear_242_21772)"/>
<path d="M250.573 22.4822L229.797 10.6542C229.371 10.3209 228.843 10.1471 228.303 10.1631C227.764 10.1791 227.246 10.3838 226.841 10.7417L244.566 28.5014L250.573 22.4822Z" fill="url(#paint3_linear_242_21772)"/>
<path opacity="0.2" d="M250.441 34.3877L229.797 46.14C229.388 46.452 228.889 46.6222 228.375 46.625C227.861 46.6277 227.36 46.4629 226.947 46.1553L226.841 46.2615L226.947 46.3642L226.947 46.3635C227.36 46.6712 227.861 46.8362 228.375 46.8334C228.889 46.8307 229.388 46.6604 229.797 46.3482L250.573 34.5202L250.441 34.3877Z" fill="#080F1A"/>
<path opacity="0.12" d="M226.841 46.0537C226.375 45.495 226.14 44.7788 226.183 44.0518V44.26C226.139 44.987 226.375 45.7032 226.841 46.2619L226.947 46.1558L226.841 46.0537Z" fill="#080F1A"/>
<path opacity="0.12" d="M257.532 30.3506L250.441 34.3879L250.573 34.5204L257.532 30.5588C257.941 30.3808 258.295 30.0961 258.558 29.7344C258.82 29.3726 258.981 28.947 259.023 28.502C258.935 28.905 258.754 29.282 258.495 29.6029C258.237 29.9238 257.907 30.1798 257.532 30.3506Z" fill="#080F1A"/>
<path opacity="0.25" d="M229.797 10.8632L257.532 26.6521C257.907 26.8229 258.237 27.079 258.496 27.4C258.755 27.7211 258.935 28.0982 259.023 28.5014C258.981 28.0562 258.82 27.6304 258.558 27.2685C258.296 26.9066 257.941 26.6218 257.532 26.4439L229.797 10.655C227.809 9.52338 226.183 10.4633 226.183 12.7444V12.9526C226.183 10.6716 227.809 9.73172 229.797 10.8632Z" fill="white"/>
</g>
<defs>
<linearGradient id="paint0_linear_242_21772" x1="243.004" y1="12.4113" x2="219.089" y2="36.2796" gradientUnits="userSpaceOnUse">
<stop stop-color="#00A0FF"/>
<stop offset="0.00657" stop-color="#00A1FF"/>
<stop offset="0.2601" stop-color="#00BEFF"/>
<stop offset="0.5122" stop-color="#00D2FF"/>
<stop offset="0.7604" stop-color="#00DFFF"/>
<stop offset="1" stop-color="#00E3FF"/>
</linearGradient>
<linearGradient id="paint1_linear_242_21772" x1="260.12" y1="28.502" x2="225.706" y2="28.502" gradientUnits="userSpaceOnUse">
<stop stop-color="#FFE000"/>
<stop offset="0.4087" stop-color="#FFBD00"/>
<stop offset="0.7754" stop-color="#FFA500"/>
<stop offset="1" stop-color="#FF9C00"/>
</linearGradient>
<linearGradient id="paint2_linear_242_21772" x1="247.309" y1="31.772" x2="214.879" y2="64.1392" gradientUnits="userSpaceOnUse">
<stop stop-color="#FF3A44"/>
<stop offset="1" stop-color="#C31162"/>
</linearGradient>
<linearGradient id="paint3_linear_242_21772" x1="222.378" y1="0.251126" x2="236.86" y2="14.7045" gradientUnits="userSpaceOnUse">
<stop stop-color="#32A071"/>
<stop offset="0.0685" stop-color="#2DA771"/>
<stop offset="0.4762" stop-color="#15CF74"/>
<stop offset="0.8009" stop-color="#06E775"/>
<stop offset="1" stop-color="#00F076"/>
</linearGradient>
<clipPath id="clip0_242_21772">
<rect width="192" height="57" fill="white"/>
</clipPath>
<clipPath id="clip1_242_21772">
<rect width="192" height="57" fill="white" transform="translate(212)"/>
</clipPath>
</defs>
</svg>
