<svg width="100" height="100" viewBox="0 0 100 100" fill="none" xmlns="http://www.w3.org/2000/svg">
<circle cx="50" cy="50" r="50" fill="#ECF4FF"/>
<path d="M75.6875 52.4375L72.5 49.25V46.25C72.5 40.0625 70.0625 34.625 65.9375 30.3125L63.125 42.875C62.9375 43.8125 62.1875 44.375 61.25 44.375C61.0625 44.375 61.0625 44.375 60.875 44.375C59.9375 44.1875 59.1875 43.0625 59.375 42.125L63.125 25.4375C63.125 24.875 62.75 24.125 62.1875 23.9375C54.6875 20.1875 45.5 20.1875 38 23.9375C37.25 24.3125 36.875 24.875 36.875 25.4375L40.625 42.125C40.8125 43.0625 40.25 44.1875 39.125 44.375C38.9375 44.375 38.9375 44.375 38.75 44.375C37.8125 44.375 37.0625 43.8125 36.875 42.875L34.0625 30.3125C29.9375 34.625 27.5 40.0625 27.5 46.25V49.25L24.3125 52.4375C23.75 53 23.5625 53.75 23.9375 54.5C24.125 55.25 24.875 55.625 25.625 55.625H74.375C75.125 55.625 75.875 55.25 76.0625 54.5C76.4375 53.75 76.25 53 75.6875 52.4375Z" fill="#0844D2"/>
<path d="M57.3125 59.375C57.5 59.9375 57.5 60.6875 57.5 61.25C57.5 65.375 54.125 68.75 50 68.75C45.875 68.75 42.5 65.375 42.5 61.25C42.5 60.6875 42.6875 59.9375 42.6875 59.375H32.5625C32.5625 59.9375 32.375 60.6875 32.375 61.25C32.375 62.5625 32.5625 63.875 32.9375 65.375C33.125 66.3125 34.0625 66.875 35 66.6875C36.125 66.5 37.25 67.0625 38 68.1875C38.75 69.3125 38.5625 70.4375 37.8125 71.375C37.25 72.125 37.25 73.25 38 73.8125C40.0625 75.6875 42.5 77.1875 45.125 77.9375C46.0625 78.125 47 77.75 47.375 76.8125C47.75 75.6875 48.875 74.9375 50 74.9375C51.125 74.9375 52.25 75.6875 52.625 76.8125C53 77.5625 53.5625 77.9375 54.3125 77.9375C54.5 77.9375 54.6875 77.9375 54.875 77.9375C57.5 77.1875 59.9375 75.6875 62 73.8125C62.75 73.0625 62.75 72.125 62.1875 71.375C61.4375 70.4375 61.4375 69.125 62 68.1875C62.5625 67.25 63.6875 66.5 65 66.6875C65.9375 66.875 66.875 66.125 67.0625 65.1875C67.4375 63.875 67.625 62.375 67.625 61.0625C67.625 60.5 67.625 59.75 67.4375 59.1875H57.3125V59.375Z" fill="#01040B"/>
</svg>
