<svg width="50" height="50" viewBox="0 0 50 50" fill="none" xmlns="http://www.w3.org/2000/svg">
<path d="M43.3343 25.0343C43.2933 21.6788 42.3001 18.405 40.4718 15.5984C38.6435 12.7917 36.0562 10.5692 33.0146 9.19253C29.9729 7.81585 26.6036 7.34236 23.3035 7.8278C20.0033 8.31325 16.9098 9.73743 14.3871 11.9326C11.8645 14.1278 10.0178 17.0025 9.06457 20.2183C8.11135 23.4341 8.09128 26.857 9.00672 30.0839C9.92217 33.3108 11.735 36.2072 14.2317 38.4322C16.7285 40.6572 19.8051 42.118 23.0993 42.6426V30.1627H18.7242V25.0343H23.0993V21.1385C22.9981 20.2326 23.0957 19.3155 23.3852 18.4517C23.6748 17.5879 24.1493 16.7986 24.7751 16.1395C25.401 15.4804 26.163 14.9676 27.0074 14.6371C27.8518 14.3067 28.758 14.1668 29.662 14.2273C30.9742 14.2454 32.2832 14.3631 33.5777 14.5795V18.9815H31.3902C31.013 18.9336 30.6299 18.9717 30.2692 19.0928C29.9086 19.2139 29.5796 19.415 29.3066 19.6813C29.0336 19.9475 28.8235 20.2721 28.6919 20.631C28.5603 20.9899 28.5106 21.374 28.5464 21.7548V25.0784H33.4027L32.6152 30.2068H28.5682V42.5325C32.7025 41.8746 36.4655 39.7475 39.1746 36.5371C41.8837 33.3267 43.3595 29.2457 43.3343 25.0343Z" fill="white"/>
</svg>
