<svg width="247" height="213" viewBox="0 0 247 213" fill="none" xmlns="http://www.w3.org/2000/svg">
<circle cx="132" cy="1" r="4" fill="#FF4155" fill-opacity="0.05"/>
<circle cx="148" cy="1" r="4" fill="#FF4155" fill-opacity="0.05"/>
<circle cx="164" cy="1" r="4" fill="#FF4155" fill-opacity="0.05"/>
<circle cx="180" cy="1" r="4" fill="#FF4155" fill-opacity="0.05"/>
<circle cx="196" cy="1" r="4" fill="#FF4155" fill-opacity="0.05"/>
<circle cx="212" cy="1" r="4" fill="#FF4155" fill-opacity="0.05"/>
<circle cx="228" cy="1" r="4" fill="#FF4155" fill-opacity="0.05"/>
<circle cx="244" cy="1" r="4" fill="#FF4155" fill-opacity="0.05"/>
<circle cx="132" cy="17" r="4" fill="#FF4155" fill-opacity="0.05"/>
<circle cx="148" cy="17" r="4" fill="#FF4155" fill-opacity="0.05"/>
<circle cx="164" cy="17" r="4" fill="#FF4155" fill-opacity="0.05"/>
<circle cx="180" cy="17" r="4" fill="#FF4155" fill-opacity="0.05"/>
<circle cx="196" cy="17" r="4" fill="#FF4155" fill-opacity="0.05"/>
<circle cx="212" cy="17" r="4" fill="#FF4155" fill-opacity="0.05"/>
<circle cx="228" cy="17" r="4" fill="#FF4155" fill-opacity="0.05"/>
<circle cx="244" cy="17" r="4" fill="#FF4155" fill-opacity="0.05"/>
<circle cx="132" cy="33" r="4" fill="#FF4155" fill-opacity="0.05"/>
<circle cx="148" cy="33" r="4" fill="#FF4155" fill-opacity="0.05"/>
<circle cx="164" cy="33" r="4" fill="#FF4155" fill-opacity="0.05"/>
<circle cx="180" cy="33" r="4" fill="#FF4155" fill-opacity="0.05"/>
<circle cx="196" cy="33" r="4" fill="#FF4155" fill-opacity="0.05"/>
<circle cx="212" cy="33" r="4" fill="#FF4155" fill-opacity="0.05"/>
<circle cx="228" cy="33" r="4" fill="#FF4155" fill-opacity="0.05"/>
<circle cx="244" cy="33" r="4" fill="#FF4155" fill-opacity="0.05"/>
<circle cx="132" cy="49" r="4" fill="#FF4155" fill-opacity="0.05"/>
<circle cx="148" cy="49" r="4" fill="#FF4155" fill-opacity="0.05"/>
<circle cx="164" cy="49" r="4" fill="#FF4155" fill-opacity="0.05"/>
<circle cx="180" cy="49" r="4" fill="#FF4155" fill-opacity="0.05"/>
<circle cx="196" cy="49" r="4" fill="#FF4155" fill-opacity="0.05"/>
<circle cx="212" cy="49" r="4" fill="#FF4155" fill-opacity="0.05"/>
<circle cx="228" cy="49" r="4" fill="#FF4155" fill-opacity="0.05"/>
<circle cx="244" cy="49" r="4" fill="#FF4155" fill-opacity="0.05"/>
<circle cx="132" cy="65" r="4" fill="#FF4155" fill-opacity="0.05"/>
<circle cx="148" cy="65" r="4" fill="#FF4155" fill-opacity="0.05"/>
<circle cx="164" cy="65" r="4" fill="#FF4155" fill-opacity="0.05"/>
<circle cx="180" cy="65" r="4" fill="#FF4155" fill-opacity="0.05"/>
<circle cx="196" cy="65" r="4" fill="#FF4155" fill-opacity="0.05"/>
<circle cx="212" cy="65" r="4" fill="#FF4155" fill-opacity="0.05"/>
<circle cx="228" cy="65" r="4" fill="#FF4155" fill-opacity="0.05"/>
<circle cx="244" cy="65" r="4" fill="#FF4155" fill-opacity="0.05"/>
<circle cx="132" cy="81" r="4" fill="#FF4155" fill-opacity="0.05"/>
<circle cx="148" cy="81" r="4" fill="#FF4155" fill-opacity="0.05"/>
<circle cx="164" cy="81" r="4" fill="#FF4155" fill-opacity="0.05"/>
<circle cx="180" cy="81" r="4" fill="#FF4155" fill-opacity="0.05"/>
<circle cx="196" cy="81" r="4" fill="#FF4155" fill-opacity="0.05"/>
<circle cx="212" cy="81" r="4" fill="#FF4155" fill-opacity="0.05"/>
<circle cx="228" cy="81" r="4" fill="#FF4155" fill-opacity="0.05"/>
<circle cx="244" cy="81" r="4" fill="#FF4155" fill-opacity="0.05"/>
<circle cx="132" cy="97" r="4" fill="#FF4155" fill-opacity="0.05"/>
<circle cx="148" cy="97" r="4" fill="#FF4155" fill-opacity="0.05"/>
<circle cx="164" cy="97" r="4" fill="#FF4155" fill-opacity="0.05"/>
<circle cx="180" cy="97" r="4" fill="#FF4155" fill-opacity="0.05"/>
<circle cx="196" cy="97" r="4" fill="#FF4155" fill-opacity="0.05"/>
<circle cx="212" cy="97" r="4" fill="#FF4155" fill-opacity="0.05"/>
<circle cx="228" cy="97" r="4" fill="#FF4155" fill-opacity="0.05"/>
<circle cx="244" cy="97" r="4" fill="#FF4155" fill-opacity="0.05"/>
<circle cx="132" cy="113" r="4" fill="#FF4155" fill-opacity="0.05"/>
<circle cx="148" cy="113" r="4" fill="#FF4155" fill-opacity="0.05"/>
<circle cx="164" cy="113" r="4" fill="#FF4155" fill-opacity="0.05"/>
<circle cx="180" cy="113" r="4" fill="#FF4155" fill-opacity="0.05"/>
<circle cx="196" cy="113" r="4" fill="#FF4155" fill-opacity="0.05"/>
<circle cx="212" cy="113" r="4" fill="#FF4155" fill-opacity="0.05"/>
<circle cx="228" cy="113" r="4" fill="#FF4155" fill-opacity="0.05"/>
<circle cx="244" cy="113" r="4" fill="#FF4155" fill-opacity="0.05"/>
<circle cx="132" cy="129" r="4" fill="#FF4155" fill-opacity="0.05"/>
<circle cx="148" cy="129" r="4" fill="#FF4155" fill-opacity="0.05"/>
<circle cx="164" cy="129" r="4" fill="#FF4155" fill-opacity="0.05"/>
<circle cx="180" cy="129" r="4" fill="#FF4155" fill-opacity="0.05"/>
<circle cx="196" cy="129" r="4" fill="#FF4155" fill-opacity="0.05"/>
<circle cx="212" cy="129" r="4" fill="#FF4155" fill-opacity="0.05"/>
<circle cx="228" cy="129" r="4" fill="#FF4155" fill-opacity="0.05"/>
<circle cx="244" cy="129" r="4" fill="#FF4155" fill-opacity="0.05"/>
<circle cx="132" cy="145" r="4" fill="#FF4155" fill-opacity="0.05"/>
<circle cx="148" cy="145" r="4" fill="#FF4155" fill-opacity="0.05"/>
<circle cx="164" cy="145" r="4" fill="#FF4155" fill-opacity="0.05"/>
<circle cx="180" cy="145" r="4" fill="#FF4155" fill-opacity="0.05"/>
<circle cx="196" cy="145" r="4" fill="#FF4155" fill-opacity="0.05"/>
<circle cx="212" cy="145" r="4" fill="#FF4155" fill-opacity="0.05"/>
<circle cx="228" cy="145" r="4" fill="#FF4155" fill-opacity="0.05"/>
<circle cx="244" cy="145" r="4" fill="#FF4155" fill-opacity="0.05"/>
<circle cx="132" cy="161" r="4" fill="#FF4155" fill-opacity="0.05"/>
<circle cx="148" cy="161" r="4" fill="#FF4155" fill-opacity="0.05"/>
<circle cx="164" cy="161" r="4" fill="#FF4155" fill-opacity="0.05"/>
<circle cx="180" cy="161" r="4" fill="#FF4155" fill-opacity="0.05"/>
<circle cx="196" cy="161" r="4" fill="#FF4155" fill-opacity="0.05"/>
<circle cx="212" cy="161" r="4" fill="#FF4155" fill-opacity="0.05"/>
<circle cx="228" cy="161" r="4" fill="#FF4155" fill-opacity="0.05"/>
<circle cx="244" cy="161" r="4" fill="#FF4155" fill-opacity="0.05"/>
<circle cx="132" cy="177" r="4" fill="#FF4155" fill-opacity="0.05"/>
<circle cx="148" cy="177" r="4" fill="#FF4155" fill-opacity="0.05"/>
<circle cx="164" cy="177" r="4" fill="#FF4155" fill-opacity="0.05"/>
<circle cx="180" cy="177" r="4" fill="#FF4155" fill-opacity="0.05"/>
<circle cx="196" cy="177" r="4" fill="#FF4155" fill-opacity="0.05"/>
<circle cx="212" cy="177" r="4" fill="#FF4155" fill-opacity="0.05"/>
<circle cx="228" cy="177" r="4" fill="#FF4155" fill-opacity="0.05"/>
<circle cx="244" cy="177" r="4" fill="#FF4155" fill-opacity="0.05"/>
<circle cx="132" cy="193" r="4" fill="#FF4155" fill-opacity="0.05"/>
<circle cx="148" cy="193" r="4" fill="#FF4155" fill-opacity="0.05"/>
<circle cx="164" cy="193" r="4" fill="#FF4155" fill-opacity="0.05"/>
<circle cx="180" cy="193" r="4" fill="#FF4155" fill-opacity="0.05"/>
<circle cx="196" cy="193" r="4" fill="#FF4155" fill-opacity="0.05"/>
<circle cx="212" cy="193" r="4" fill="#FF4155" fill-opacity="0.05"/>
<circle cx="228" cy="193" r="4" fill="#FF4155" fill-opacity="0.05"/>
<circle cx="244" cy="193" r="4" fill="#FF4155" fill-opacity="0.05"/>
<circle cx="132" cy="209" r="4" fill="#FF4155" fill-opacity="0.05"/>
<circle cx="148" cy="209" r="4" fill="#FF4155" fill-opacity="0.05"/>
<circle cx="164" cy="209" r="4" fill="#FF4155" fill-opacity="0.05"/>
<circle cx="180" cy="209" r="4" fill="#FF4155" fill-opacity="0.05"/>
<circle cx="196" cy="209" r="4" fill="#FF4155" fill-opacity="0.05"/>
<circle cx="212" cy="209" r="4" fill="#FF4155" fill-opacity="0.05"/>
<circle cx="228" cy="209" r="4" fill="#FF4155" fill-opacity="0.05"/>
<circle cx="244" cy="209" r="4" fill="#FF4155" fill-opacity="0.05"/>
<circle cx="4" cy="1" r="4" fill="#FF4155" fill-opacity="0.05"/>
<circle cx="20" cy="1" r="4" fill="#FF4155" fill-opacity="0.05"/>
<circle cx="36" cy="1" r="4" fill="#FF4155" fill-opacity="0.05"/>
<circle cx="52" cy="1" r="4" fill="#FF4155" fill-opacity="0.05"/>
<circle cx="68" cy="1" r="4" fill="#FF4155" fill-opacity="0.05"/>
<circle cx="84" cy="1" r="4" fill="#FF4155" fill-opacity="0.05"/>
<circle cx="100" cy="1" r="4" fill="#FF4155" fill-opacity="0.05"/>
<circle cx="116" cy="1" r="4" fill="#FF4155" fill-opacity="0.05"/>
<circle cx="4" cy="17" r="4" fill="#FF4155" fill-opacity="0.05"/>
<circle cx="20" cy="17" r="4" fill="#FF4155" fill-opacity="0.05"/>
<circle cx="36" cy="17" r="4" fill="#FF4155" fill-opacity="0.05"/>
<circle cx="52" cy="17" r="4" fill="#FF4155" fill-opacity="0.05"/>
<circle cx="68" cy="17" r="4" fill="#FF4155" fill-opacity="0.05"/>
<circle cx="84" cy="17" r="4" fill="#FF4155" fill-opacity="0.05"/>
<circle cx="100" cy="17" r="4" fill="#FF4155" fill-opacity="0.05"/>
<circle cx="116" cy="17" r="4" fill="#FF4155" fill-opacity="0.05"/>
<circle cx="4" cy="33" r="4" fill="#FF4155" fill-opacity="0.05"/>
<circle cx="20" cy="33" r="4" fill="#FF4155" fill-opacity="0.05"/>
<circle cx="36" cy="33" r="4" fill="#FF4155" fill-opacity="0.05"/>
<circle cx="52" cy="33" r="4" fill="#FF4155" fill-opacity="0.05"/>
<circle cx="68" cy="33" r="4" fill="#FF4155" fill-opacity="0.05"/>
<circle cx="84" cy="33" r="4" fill="#FF4155" fill-opacity="0.05"/>
<circle cx="100" cy="33" r="4" fill="#FF4155" fill-opacity="0.05"/>
<circle cx="116" cy="33" r="4" fill="#FF4155" fill-opacity="0.05"/>
<circle cx="4" cy="49" r="4" fill="#FF4155" fill-opacity="0.05"/>
<circle cx="20" cy="49" r="4" fill="#FF4155" fill-opacity="0.05"/>
<circle cx="36" cy="49" r="4" fill="#FF4155" fill-opacity="0.05"/>
<circle cx="52" cy="49" r="4" fill="#FF4155" fill-opacity="0.05"/>
<circle cx="68" cy="49" r="4" fill="#FF4155" fill-opacity="0.05"/>
<circle cx="84" cy="49" r="4" fill="#FF4155" fill-opacity="0.05"/>
<circle cx="100" cy="49" r="4" fill="#FF4155" fill-opacity="0.05"/>
<circle cx="116" cy="49" r="4" fill="#FF4155" fill-opacity="0.05"/>
<circle cx="4" cy="65" r="4" fill="#FF4155" fill-opacity="0.05"/>
<circle cx="20" cy="65" r="4" fill="#FF4155" fill-opacity="0.05"/>
<circle cx="36" cy="65" r="4" fill="#FF4155" fill-opacity="0.05"/>
<circle cx="52" cy="65" r="4" fill="#FF4155" fill-opacity="0.05"/>
<circle cx="68" cy="65" r="4" fill="#FF4155" fill-opacity="0.05"/>
<circle cx="84" cy="65" r="4" fill="#FF4155" fill-opacity="0.05"/>
<circle cx="100" cy="65" r="4" fill="#FF4155" fill-opacity="0.05"/>
<circle cx="116" cy="65" r="4" fill="#FF4155" fill-opacity="0.05"/>
<circle cx="4" cy="81" r="4" fill="#FF4155" fill-opacity="0.05"/>
<circle cx="20" cy="81" r="4" fill="#FF4155" fill-opacity="0.05"/>
<circle cx="36" cy="81" r="4" fill="#FF4155" fill-opacity="0.05"/>
<circle cx="52" cy="81" r="4" fill="#FF4155" fill-opacity="0.05"/>
<circle cx="68" cy="81" r="4" fill="#FF4155" fill-opacity="0.05"/>
<circle cx="84" cy="81" r="4" fill="#FF4155" fill-opacity="0.05"/>
<circle cx="100" cy="81" r="4" fill="#FF4155" fill-opacity="0.05"/>
<circle cx="116" cy="81" r="4" fill="#FF4155" fill-opacity="0.05"/>
<circle cx="4" cy="97" r="4" fill="#FF4155" fill-opacity="0.05"/>
<circle cx="20" cy="97" r="4" fill="#FF4155" fill-opacity="0.05"/>
<circle cx="36" cy="97" r="4" fill="#FF4155" fill-opacity="0.05"/>
<circle cx="52" cy="97" r="4" fill="#FF4155" fill-opacity="0.05"/>
<circle cx="68" cy="97" r="4" fill="#FF4155" fill-opacity="0.05"/>
<circle cx="84" cy="97" r="4" fill="#FF4155" fill-opacity="0.05"/>
<circle cx="100" cy="97" r="4" fill="#FF4155" fill-opacity="0.05"/>
<circle cx="116" cy="97" r="4" fill="#FF4155" fill-opacity="0.05"/>
<circle cx="4" cy="113" r="4" fill="#FF4155" fill-opacity="0.05"/>
<circle cx="20" cy="113" r="4" fill="#FF4155" fill-opacity="0.05"/>
<circle cx="36" cy="113" r="4" fill="#FF4155" fill-opacity="0.05"/>
<circle cx="52" cy="113" r="4" fill="#FF4155" fill-opacity="0.05"/>
<circle cx="68" cy="113" r="4" fill="#FF4155" fill-opacity="0.05"/>
<circle cx="84" cy="113" r="4" fill="#FF4155" fill-opacity="0.05"/>
<circle cx="100" cy="113" r="4" fill="#FF4155" fill-opacity="0.05"/>
<circle cx="116" cy="113" r="4" fill="#FF4155" fill-opacity="0.05"/>
<circle cx="4" cy="129" r="4" fill="#FF4155" fill-opacity="0.05"/>
<circle cx="20" cy="129" r="4" fill="#FF4155" fill-opacity="0.05"/>
<circle cx="36" cy="129" r="4" fill="#FF4155" fill-opacity="0.05"/>
<circle cx="52" cy="129" r="4" fill="#FF4155" fill-opacity="0.05"/>
<circle cx="68" cy="129" r="4" fill="#FF4155" fill-opacity="0.05"/>
<circle cx="84" cy="129" r="4" fill="#FF4155" fill-opacity="0.05"/>
<circle cx="100" cy="129" r="4" fill="#FF4155" fill-opacity="0.05"/>
<circle cx="116" cy="129" r="4" fill="#FF4155" fill-opacity="0.05"/>
<circle cx="4" cy="145" r="4" fill="#FF4155" fill-opacity="0.05"/>
<circle cx="20" cy="145" r="4" fill="#FF4155" fill-opacity="0.05"/>
<circle cx="36" cy="145" r="4" fill="#FF4155" fill-opacity="0.05"/>
<circle cx="52" cy="145" r="4" fill="#FF4155" fill-opacity="0.05"/>
<circle cx="68" cy="145" r="4" fill="#FF4155" fill-opacity="0.05"/>
<circle cx="84" cy="145" r="4" fill="#FF4155" fill-opacity="0.05"/>
<circle cx="100" cy="145" r="4" fill="#FF4155" fill-opacity="0.05"/>
<circle cx="116" cy="145" r="4" fill="#FF4155" fill-opacity="0.05"/>
<circle cx="4" cy="161" r="4" fill="#FF4155" fill-opacity="0.05"/>
<circle cx="20" cy="161" r="4" fill="#FF4155" fill-opacity="0.05"/>
<circle cx="36" cy="161" r="4" fill="#FF4155" fill-opacity="0.05"/>
<circle cx="52" cy="161" r="4" fill="#FF4155" fill-opacity="0.05"/>
<circle cx="68" cy="161" r="4" fill="#FF4155" fill-opacity="0.05"/>
<circle cx="84" cy="161" r="4" fill="#FF4155" fill-opacity="0.05"/>
<circle cx="100" cy="161" r="4" fill="#FF4155" fill-opacity="0.05"/>
<circle cx="116" cy="161" r="4" fill="#FF4155" fill-opacity="0.05"/>
<circle cx="4" cy="177" r="4" fill="#FF4155" fill-opacity="0.05"/>
<circle cx="20" cy="177" r="4" fill="#FF4155" fill-opacity="0.05"/>
<circle cx="36" cy="177" r="4" fill="#FF4155" fill-opacity="0.05"/>
<circle cx="52" cy="177" r="4" fill="#FF4155" fill-opacity="0.05"/>
<circle cx="68" cy="177" r="4" fill="#FF4155" fill-opacity="0.05"/>
<circle cx="84" cy="177" r="4" fill="#FF4155" fill-opacity="0.05"/>
<circle cx="100" cy="177" r="4" fill="#FF4155" fill-opacity="0.05"/>
<circle cx="116" cy="177" r="4" fill="#FF4155" fill-opacity="0.05"/>
<circle cx="4" cy="193" r="4" fill="#FF4155" fill-opacity="0.05"/>
<circle cx="20" cy="193" r="4" fill="#FF4155" fill-opacity="0.05"/>
<circle cx="36" cy="193" r="4" fill="#FF4155" fill-opacity="0.05"/>
<circle cx="52" cy="193" r="4" fill="#FF4155" fill-opacity="0.05"/>
<circle cx="68" cy="193" r="4" fill="#FF4155" fill-opacity="0.05"/>
<circle cx="84" cy="193" r="4" fill="#FF4155" fill-opacity="0.05"/>
<circle cx="100" cy="193" r="4" fill="#FF4155" fill-opacity="0.05"/>
<circle cx="116" cy="193" r="4" fill="#FF4155" fill-opacity="0.05"/>
<circle cx="4" cy="209" r="4" fill="#FF4155" fill-opacity="0.05"/>
<circle cx="20" cy="209" r="4" fill="#FF4155" fill-opacity="0.05"/>
<circle cx="36" cy="209" r="4" fill="#FF4155" fill-opacity="0.05"/>
<circle cx="52" cy="209" r="4" fill="#FF4155" fill-opacity="0.05"/>
<circle cx="68" cy="209" r="4" fill="#FF4155" fill-opacity="0.05"/>
<circle cx="84" cy="209" r="4" fill="#FF4155" fill-opacity="0.05"/>
<circle cx="100" cy="209" r="4" fill="#FF4155" fill-opacity="0.05"/>
<circle cx="116" cy="209" r="4" fill="#FF4155" fill-opacity="0.05"/>
</svg>
