<svg width="50" height="50" viewBox="0 0 50 50" fill="none" xmlns="http://www.w3.org/2000/svg">
<path d="M25.9821 19.1461C22.7688 19.1461 20.1464 21.7685 20.1464 24.9819C20.1464 28.1954 22.7688 30.8178 25.9821 30.8178C29.1955 30.8178 31.8178 28.1954 31.8178 24.9819C31.8178 21.7685 29.1955 19.1461 25.9821 19.1461ZM43.4849 24.9819C43.4849 22.5653 43.5068 20.1706 43.371 17.7583C43.2353 14.9564 42.5962 12.4697 40.5473 10.4208C38.4941 8.36758 36.0118 7.73278 33.21 7.59706C30.7934 7.46135 28.3987 7.48324 25.9865 7.48324C23.5699 7.48324 21.1752 7.46135 18.763 7.59706C15.9612 7.73278 13.4745 8.37196 11.4257 10.4208C9.37245 12.4741 8.73766 14.9564 8.60194 17.7583C8.46623 20.1749 8.48812 22.5697 8.48812 24.9819C8.48812 27.3942 8.46623 29.7933 8.60194 32.2056C8.73766 35.0075 9.37683 37.4941 11.4257 39.543C13.4789 41.5963 15.9612 42.2311 18.763 42.3668C21.1796 42.5025 23.5743 42.4806 25.9865 42.4806C28.4031 42.4806 30.7978 42.5025 33.21 42.3668C36.0118 42.2311 38.4985 41.5919 40.5473 39.543C42.6005 37.4898 43.2353 35.0075 43.371 32.2056C43.5111 29.7933 43.4849 27.3986 43.4849 24.9819ZM25.9821 33.9611C21.0132 33.9611 17.0031 29.9509 17.0031 24.9819C17.0031 20.013 21.0132 16.0027 25.9821 16.0027C30.951 16.0027 34.9611 20.013 34.9611 24.9819C34.9611 29.9509 30.951 33.9611 25.9821 33.9611ZM35.3289 17.732C34.1687 17.732 33.2319 16.7952 33.2319 15.635C33.2319 14.4748 34.1687 13.538 35.3289 13.538C36.489 13.538 37.4259 14.4748 37.4259 15.635C37.4262 15.9105 37.3722 16.1833 37.267 16.4379C37.1617 16.6925 37.0072 16.9238 36.8125 17.1186C36.6177 17.3134 36.3864 17.4678 36.1318 17.5731C35.8772 17.6784 35.6044 17.7324 35.3289 17.732Z" fill="white"/>
</svg>
