<svg width="50" height="50" viewBox="0 0 50 50" fill="none" xmlns="http://www.w3.org/2000/svg">
<path d="M40.5326 8.33371H11.3301C10.9537 8.31607 10.5775 8.37284 10.2231 8.50077C9.86866 8.6287 9.54294 8.82527 9.26458 9.07923C8.98622 9.3332 8.76068 9.63956 8.60088 9.98079C8.44108 10.322 8.35016 10.6914 8.33331 11.0678V40.334C8.35536 41.1217 8.67818 41.8712 9.23548 42.4285C9.79278 42.9857 10.5423 43.3085 11.3301 43.3306H40.5326C41.2985 43.2964 42.0205 42.9636 42.5439 42.4035C43.0674 41.8433 43.3504 41.1004 43.3325 40.334V11.0678C43.3388 10.7015 43.2701 10.3377 43.1308 9.9988C42.9914 9.6599 42.7843 9.35305 42.5222 9.09704C42.26 8.84103 41.9483 8.64127 41.6062 8.51001C41.264 8.37875 40.8987 8.31876 40.5326 8.33371ZM19.2706 37.5123H14.1738V21.9169H19.2706V37.5123ZM16.8425 19.5546C16.4868 19.567 16.1325 19.5057 15.8016 19.3746C15.4708 19.2435 15.1706 19.0454 14.92 18.7927C14.6694 18.5401 14.4737 18.2383 14.3453 17.9064C14.2169 17.5746 14.1585 17.2197 14.1738 16.8642C14.1581 16.5048 14.2176 16.1461 14.3487 15.8111C14.4797 15.4762 14.6794 15.1723 14.9348 14.9189C15.1902 14.6656 15.4957 14.4685 15.8317 14.3401C16.1678 14.2118 16.527 14.1552 16.8862 14.1738C17.2419 14.1614 17.5963 14.2227 17.9271 14.3538C18.258 14.4849 18.5581 14.683 18.8087 14.9357C19.0594 15.1883 19.255 15.4901 19.3834 15.8219C19.5118 16.1538 19.5702 16.5087 19.5549 16.8642C19.5707 17.2236 19.5111 17.5822 19.38 17.9172C19.249 18.2522 19.0494 18.5561 18.794 18.8095C18.5386 19.0628 18.2331 19.2599 17.897 19.3882C17.5609 19.5166 17.2017 19.5732 16.8425 19.5546ZM37.5139 37.5123H32.3953V28.9818C32.3953 26.9477 31.6734 25.5478 29.8578 25.5478C29.2938 25.5527 28.7451 25.7319 28.2869 26.0608C27.8287 26.3897 27.4835 26.8523 27.2985 27.3851C27.1563 27.7846 27.0967 28.2087 27.1235 28.6319V37.5123H22.0924V21.9169H27.1235V24.1042C27.5708 23.2825 28.2366 22.6004 29.0472 22.1334C29.8579 21.6663 30.7819 21.4324 31.7172 21.4575C35.0202 21.4575 37.5139 23.6448 37.5139 28.3038V37.5123Z" fill="white"/>
</svg>
