<svg width="60" height="52" viewBox="0 0 60 52" fill="none" xmlns="http://www.w3.org/2000/svg">
<g clip-path="url(#clip0_545_21402)">
<path d="M25.8336 47.4222V37.4101C25.8336 36.0522 24.7329 34.952 23.375 34.952C18.5304 34.952 15.8951 29.9831 15.5298 20.1761H23.375C24.7329 20.1761 25.8336 19.0748 25.8336 17.7175V-3.42257C25.8336 -4.77974 24.7329 -5.88013 23.375 -5.88013H2.45808C1.0997 -5.88013 0 -4.77888 0 -3.42257V17.7175C0 22.4188 0.473361 26.733 1.40651 30.5417C2.36354 34.447 3.83261 37.8616 5.7716 40.691C7.7668 43.5987 10.2625 45.8804 13.19 47.47C16.1373 49.0691 19.5646 49.8802 23.3759 49.8802C24.7329 49.8802 25.8336 48.78 25.8336 47.4222ZM57.5412 34.9518C58.8984 34.9518 60 36.0531 60 37.4099V47.422C60 48.7799 58.8986 49.8801 57.5412 49.8801C53.7315 49.8801 50.3037 49.0688 47.3574 47.4698C44.4294 45.8802 41.9324 43.5985 39.9368 40.6908C37.9985 37.8614 36.5294 34.4467 35.5722 30.5405C34.6396 26.7306 34.1662 22.4164 34.1662 17.7173V-3.42274C34.1662 -4.77991 35.2673 -5.8803 36.6248 -5.8803H57.5411C58.8982 -5.8803 59.9988 -4.77905 59.9988 -3.42274V17.7175C59.9988 19.0746 58.8984 20.1761 57.5411 20.1761H49.8078C50.1675 29.9829 52.7643 34.9518 57.5412 34.9518Z" fill="#01040B"/>
</g>
<defs>
<clipPath id="clip0_545_21402">
<rect width="60" height="60" fill="white" transform="matrix(1 0 0 -1 0 52)"/>
</clipPath>
</defs>
</svg>
