<svg width="50" height="50" viewBox="0 0 50 50" fill="none" xmlns="http://www.w3.org/2000/svg">
<path d="M45.1666 12.2128C43.6633 12.9138 42.0735 13.3772 40.4466 13.5886C42.163 12.4865 43.4492 10.7526 44.0666 8.70873C42.4537 9.74073 40.6881 10.4678 38.8466 10.8584C37.6157 9.42367 35.9766 8.4686 34.1862 8.14304C32.3959 7.81747 30.5557 8.13983 28.9542 9.05954C27.3527 9.97926 26.0805 11.4443 25.3371 13.2249C24.5937 15.0056 24.4212 17.001 24.8466 18.8984C21.5855 18.7211 18.3955 17.8084 15.4839 16.2195C12.5724 14.6307 10.0043 12.4013 7.94663 9.6761C7.2249 11.0308 6.84566 12.5649 6.84663 14.126C6.84407 15.5757 7.17506 17.0037 7.81014 18.2826C8.44521 19.5616 9.36466 20.6519 10.4866 21.4565C9.18258 21.4184 7.9064 21.0423 6.76663 20.3602V20.4677C6.7764 22.4989 7.43861 24.4642 8.64126 26.0311C9.8439 27.5979 11.5131 28.6702 13.3666 29.0665C12.6531 29.2999 11.9124 29.423 11.1666 29.432C10.6504 29.4255 10.1355 29.3752 9.62663 29.2815C10.1544 31.0288 11.1759 32.5558 12.5488 33.6501C13.9217 34.7443 15.5778 35.3513 17.2866 35.3867C14.401 37.8272 10.8384 39.1591 7.16663 39.1702C6.4981 39.1726 5.8301 39.1295 5.16663 39.0412C8.91548 41.6429 13.2843 43.024 17.7466 43.0182C20.826 43.0526 23.8809 42.4271 26.7329 41.1782C29.5848 39.9294 32.1767 38.0822 34.357 35.7446C36.5374 33.407 38.2626 30.6259 39.4317 27.5637C40.6009 24.5014 41.1907 21.2195 41.1666 17.9095V16.7702C42.736 15.5122 44.0896 13.97 45.1666 12.2128Z" fill="white"/>
</svg>
